<?xml version="1.0" encoding="us-ascii" standalone="no"?><svg xmlns="http://www.w3.org/2000/svg" xmlns:xlink="http://www.w3.org/1999/xlink" contentStyleType="text/css" height="881px" preserveAspectRatio="none" style="width:2250px;height:881px;background:#FFFFFF;" version="1.1" viewBox="0 0 2250 881" width="2250px" zoomAndPan="magnify"><defs/><g><text fill="#000000" font-family="Noto Sans CJK JP" font-size="14" font-weight="bold" lengthAdjust="spacing" textLength="213" x="1011.5" y="26.2399">alpha &#12398;&#12487;&#12540;&#12479;&#12505;&#12540;&#12473;&#65288;SQLite&#65289;</text><!--class projects--><g id="elem_projects"><rect codeLine="18" fill="#FFFFFF" height="167.9034" id="projects" rx="3" ry="3" style="stroke:#444444;stroke-width:0.5;" width="357" x="818.5" y="48.2719"/><text fill="#000000" font-family="Noto Sans CJK JP" font-size="14" lengthAdjust="spacing" textLength="53" x="970.5" y="69.5118">projects</text><text fill="#000000" font-family="Noto Sans CJK JP" font-size="14" lengthAdjust="spacing" textLength="28" x="983" y="89.7838">&#30740;&#31350;</text><line style="stroke:#444444;stroke-width:0.5;" x1="819.5" x2="1174.5" y1="98.8157" y2="98.8157"/><ellipse cx="829.5" cy="114.4517" fill="#000000" rx="3" ry="3" style="stroke:#000000;stroke-width:1.0;"/><text fill="#000000" font-family="Noto Sans CJK JP" font-size="14" lengthAdjust="spacing" textLength="90" x="838.5" y="119.0557">id : TEXT &#171;PK&#187;</text><line style="stroke:#444444;stroke-width:1.0;" x1="819.5" x2="1174.5" y1="127.0876" y2="127.0876"/><ellipse cx="829.5" cy="142.7236" fill="#000000" rx="3" ry="3" style="stroke:#000000;stroke-width:1.0;"/><text fill="#000000" font-family="Noto Sans CJK JP" font-size="14" lengthAdjust="spacing" textLength="80" x="838.5" y="147.3276">name : TEXT</text><ellipse cx="829.5" cy="162.9955" fill="#000000" rx="3" ry="3" style="stroke:#000000;stroke-width:1.0;"/><text fill="#000000" font-family="Noto Sans CJK JP" font-size="14" lengthAdjust="spacing" textLength="331" x="838.5" y="167.5995">root_path : TEXT&#12288;&#30740;&#31350;&#12501;&#12457;&#12523;&#12480;&#65288;&#31354;&#12391;&#22987;&#12417;&#12425;&#12428;&#12427;&#65289;</text><ellipse cx="829.5" cy="183.2674" fill="#000000" rx="3" ry="3" style="stroke:#000000;stroke-width:1.0;"/><text fill="#000000" font-family="Noto Sans CJK JP" font-size="14" lengthAdjust="spacing" textLength="113" x="838.5" y="187.8714">created_at : TEXT</text><ellipse cx="829.5" cy="203.5393" fill="#000000" rx="3" ry="3" style="stroke:#000000;stroke-width:1.0;"/><text fill="#000000" font-family="Noto Sans CJK JP" font-size="14" lengthAdjust="spacing" textLength="146" x="838.5" y="208.1433">last_opened_at : TEXT</text></g><!--class objects--><g id="elem_objects"><rect codeLine="27" fill="#FFFFFF" height="309.8068" id="objects" rx="3" ry="3" style="stroke:#444444;stroke-width:0.5;" width="483" x="575.5" y="276.2719"/><text fill="#000000" font-family="Noto Sans CJK JP" font-size="14" lengthAdjust="spacing" textLength="48" x="793" y="297.5118">objects</text><text fill="#000000" font-family="Noto Sans CJK JP" font-size="14" lengthAdjust="spacing" textLength="112" x="761" y="317.7838">&#30740;&#31350;&#12458;&#12502;&#12472;&#12455;&#12463;&#12488;</text><line style="stroke:#444444;stroke-width:0.5;" x1="576.5" x2="1057.5" y1="326.8157" y2="326.8157"/><ellipse cx="586.5" cy="342.4517" fill="#000000" rx="3" ry="3" style="stroke:#000000;stroke-width:1.0;"/><text fill="#000000" font-family="Noto Sans CJK JP" font-size="14" lengthAdjust="spacing" textLength="90" x="595.5" y="347.0557">id : TEXT &#171;PK&#187;</text><line style="stroke:#444444;stroke-width:1.0;" x1="576.5" x2="1057.5" y1="355.0876" y2="355.0876"/><ellipse cx="586.5" cy="370.7236" fill="#000000" rx="3" ry="3" style="stroke:#000000;stroke-width:1.0;"/><text fill="#000000" font-family="Noto Sans CJK JP" font-size="14" lengthAdjust="spacing" textLength="143" x="595.5" y="375.3276">project_id : TEXT &#171;FK&#187;</text><ellipse cx="586.5" cy="390.9955" fill="#000000" rx="3" ry="3" style="stroke:#000000;stroke-width:1.0;"/><text fill="#000000" font-family="Noto Sans CJK JP" font-size="14" lengthAdjust="spacing" textLength="457" x="595.5" y="395.5995">type : TEXT&#12288;question / hypothesis / prediction / measurement / asset</text><ellipse cx="586.5" cy="411.2674" fill="#000000" rx="3" ry="3" style="stroke:#000000;stroke-width:1.0;"/><text fill="#000000" font-family="Noto Sans CJK JP" font-size="14" lengthAdjust="spacing" textLength="68" x="595.5" y="415.8714">title : TEXT</text><text fill="#000000" font-family="Noto Sans CJK JP" font-size="14" lengthAdjust="spacing" textLength="75" x="595.5" y="436.1433">body : TEXT</text><text fill="#000000" font-family="Noto Sans CJK JP" font-size="14" lengthAdjust="spacing" textLength="181" x="595.5" y="456.4152">note : TEXT&#12288;&#35036;&#36275;&#65288;D-115&#65289;</text><text fill="#000000" font-family="Noto Sans CJK JP" font-size="14" lengthAdjust="spacing" textLength="279" x="595.5" y="476.6871">criterion : TEXT&#12288;&#20104;&#28204;&#12384;&#12369;&#12290;&#21028;&#23450;&#24335;&#65288;&#24517;&#38920;&#65289;</text><text fill="#000000" font-family="Noto Sans CJK JP" font-size="14" lengthAdjust="spacing" textLength="233" x="595.5" y="496.959">criterion_note : TEXT&#12288;&#21028;&#23450;&#24335;&#12398;&#35036;&#36275;</text><ellipse cx="586.5" cy="512.627" fill="#000000" rx="3" ry="3" style="stroke:#000000;stroke-width:1.0;"/><text fill="#000000" font-family="Noto Sans CJK JP" font-size="14" lengthAdjust="spacing" textLength="428" x="595.5" y="517.231">origin : TEXT&#12288;researcher / agent / system / instrument / imported</text><ellipse cx="586.5" cy="532.8989" fill="#000000" rx="3" ry="3" style="stroke:#000000;stroke-width:1.0;"/><text fill="#000000" font-family="Noto Sans CJK JP" font-size="14" lengthAdjust="spacing" textLength="372" x="595.5" y="537.5029">status : TEXT&#12288;proposed / confirmed / rejected / archived</text><ellipse cx="586.5" cy="553.1708" fill="#000000" rx="3" ry="3" style="stroke:#000000;stroke-width:1.0;"/><text fill="#000000" font-family="Noto Sans CJK JP" font-size="14" lengthAdjust="spacing" textLength="113" x="595.5" y="557.7748">created_at : TEXT</text><ellipse cx="586.5" cy="573.4427" fill="#000000" rx="3" ry="3" style="stroke:#000000;stroke-width:1.0;"/><text fill="#000000" font-family="Noto Sans CJK JP" font-size="14" lengthAdjust="spacing" textLength="120" x="595.5" y="578.0467">updated_at : TEXT</text></g><!--class relations--><g id="elem_relations"><rect codeLine="43" fill="#FFFFFF" height="228.7191" id="relations" rx="3" ry="3" style="stroke:#444444;stroke-width:0.5;" width="588" x="7" y="646.2719"/><text fill="#000000" font-family="Noto Sans CJK JP" font-size="14" lengthAdjust="spacing" textLength="58" x="272" y="667.5118">relations</text><text fill="#000000" font-family="Noto Sans CJK JP" font-size="14" lengthAdjust="spacing" textLength="56" x="273" y="687.7838">&#12388;&#12394;&#12364;&#12426;</text><line style="stroke:#444444;stroke-width:0.5;" x1="8" x2="594" y1="696.8157" y2="696.8157"/><ellipse cx="18" cy="712.4517" fill="#000000" rx="3" ry="3" style="stroke:#000000;stroke-width:1.0;"/><text fill="#000000" font-family="Noto Sans CJK JP" font-size="14" lengthAdjust="spacing" textLength="90" x="27" y="717.0557">id : TEXT &#171;PK&#187;</text><line style="stroke:#444444;stroke-width:1.0;" x1="8" x2="594" y1="725.0876" y2="725.0876"/><ellipse cx="18" cy="740.7236" fill="#000000" rx="3" ry="3" style="stroke:#000000;stroke-width:1.0;"/><text fill="#000000" font-family="Noto Sans CJK JP" font-size="14" lengthAdjust="spacing" textLength="143" x="27" y="745.3276">project_id : TEXT &#171;FK&#187;</text><ellipse cx="18" cy="760.9955" fill="#000000" rx="3" ry="3" style="stroke:#000000;stroke-width:1.0;"/><text fill="#000000" font-family="Noto Sans CJK JP" font-size="14" lengthAdjust="spacing" textLength="146" x="27" y="765.5995">subject_id : TEXT &#171;FK&#187;</text><ellipse cx="18" cy="781.2674" fill="#000000" rx="3" ry="3" style="stroke:#000000;stroke-width:1.0;"/><text fill="#000000" font-family="Noto Sans CJK JP" font-size="14" lengthAdjust="spacing" textLength="562" x="27" y="785.8714">predicate : TEXT&#12288;addresses / predicts / tested_by / produces / references / related_to</text><ellipse cx="18" cy="801.5393" fill="#000000" rx="3" ry="3" style="stroke:#000000;stroke-width:1.0;"/><text fill="#000000" font-family="Noto Sans CJK JP" font-size="14" lengthAdjust="spacing" textLength="138" x="27" y="806.1433">object_id : TEXT &#171;FK&#187;</text><ellipse cx="18" cy="821.8112" fill="#000000" rx="3" ry="3" style="stroke:#000000;stroke-width:1.0;"/><text fill="#000000" font-family="Noto Sans CJK JP" font-size="14" lengthAdjust="spacing" textLength="80" x="27" y="826.4152">origin : TEXT</text><ellipse cx="18" cy="842.0832" fill="#000000" rx="3" ry="3" style="stroke:#000000;stroke-width:1.0;"/><text fill="#000000" font-family="Noto Sans CJK JP" font-size="14" lengthAdjust="spacing" textLength="304" x="27" y="846.6871">status : TEXT&#12288;proposed / confirmed / rejected</text><ellipse cx="18" cy="862.3551" fill="#000000" rx="3" ry="3" style="stroke:#000000;stroke-width:1.0;"/><text fill="#000000" font-family="Noto Sans CJK JP" font-size="14" lengthAdjust="spacing" textLength="113" x="27" y="866.959">created_at : TEXT</text></g><!--class assets--><g id="elem_assets"><rect codeLine="55" fill="#FFFFFF" height="208.4472" id="assets" rx="3" ry="3" style="stroke:#444444;stroke-width:0.5;" width="373" x="630.5" y="656.7719"/><text fill="#000000" font-family="Noto Sans CJK JP" font-size="14" lengthAdjust="spacing" textLength="42" x="796" y="678.0118">assets</text><text fill="#000000" font-family="Noto Sans CJK JP" font-size="14" lengthAdjust="spacing" textLength="42" x="796" y="698.2838">&#12487;&#12540;&#12479;</text><line style="stroke:#444444;stroke-width:0.5;" x1="631.5" x2="1002.5" y1="707.3157" y2="707.3157"/><ellipse cx="641.5" cy="722.9517" fill="#000000" rx="3" ry="3" style="stroke:#000000;stroke-width:1.0;"/><text fill="#000000" font-family="Noto Sans CJK JP" font-size="14" lengthAdjust="spacing" textLength="163" x="650.5" y="727.5557">object_id : TEXT &#171;PK, FK&#187;</text><line style="stroke:#444444;stroke-width:1.0;" x1="631.5" x2="1002.5" y1="735.5876" y2="735.5876"/><text fill="#000000" font-family="Noto Sans CJK JP" font-size="14" lengthAdjust="spacing" textLength="347" x="650.5" y="755.8276">project_id : TEXT&#12288;UNIQUE(project_id, relative_path)</text><ellipse cx="641.5" cy="771.4955" fill="#000000" rx="3" ry="3" style="stroke:#000000;stroke-width:1.0;"/><text fill="#000000" font-family="Noto Sans CJK JP" font-size="14" lengthAdjust="spacing" textLength="194" x="650.5" y="776.0995">relative_path : TEXT&#12288;/ &#21306;&#20999;&#12426;</text><ellipse cx="641.5" cy="791.7674" fill="#000000" rx="3" ry="3" style="stroke:#000000;stroke-width:1.0;"/><text fill="#000000" font-family="Noto Sans CJK JP" font-size="14" lengthAdjust="spacing" textLength="137" x="650.5" y="796.3714">size_bytes : INTEGER</text><ellipse cx="641.5" cy="812.0393" fill="#000000" rx="3" ry="3" style="stroke:#000000;stroke-width:1.0;"/><text fill="#000000" font-family="Noto Sans CJK JP" font-size="14" lengthAdjust="spacing" textLength="123" x="650.5" y="816.6433">modified_at : TEXT</text><text fill="#000000" font-family="Noto Sans CJK JP" font-size="14" lengthAdjust="spacing" textLength="210" x="650.5" y="836.9152">sha256 : TEXT&#12288;&#26410;&#20351;&#29992;&#65288;NULL&#65289;</text><text fill="#000000" font-family="Noto Sans CJK JP" font-size="14" lengthAdjust="spacing" textLength="241" x="650.5" y="857.1871">media_type : TEXT&#12288;&#26410;&#20351;&#29992;&#65288;NULL&#65289;</text></g><!--class measurements--><g id="elem_measurements"><rect codeLine="66" fill="#FFFFFF" height="107.0876" id="measurements" rx="3" ry="3" style="stroke:#444444;stroke-width:0.5;" width="380" x="1039" y="707.2719"/><text fill="#000000" font-family="Noto Sans CJK JP" font-size="14" lengthAdjust="spacing" textLength="100" x="1179" y="728.5118">measurements</text><text fill="#000000" font-family="Noto Sans CJK JP" font-size="14" lengthAdjust="spacing" textLength="70" x="1194" y="748.7838">&#28204;&#23450;&#12398;&#23455;&#26045;</text><line style="stroke:#444444;stroke-width:0.5;" x1="1040" x2="1418" y1="757.8157" y2="757.8157"/><ellipse cx="1050" cy="773.4517" fill="#000000" rx="3" ry="3" style="stroke:#000000;stroke-width:1.0;"/><text fill="#000000" font-family="Noto Sans CJK JP" font-size="14" lengthAdjust="spacing" textLength="163" x="1059" y="778.0557">object_id : TEXT &#171;PK, FK&#187;</text><line style="stroke:#444444;stroke-width:1.0;" x1="1040" x2="1418" y1="786.0876" y2="786.0876"/><text fill="#000000" font-family="Noto Sans CJK JP" font-size="14" lengthAdjust="spacing" textLength="368" x="1045" y="806.3276">performed_at : TEXT&#12288;&#12487;&#12540;&#12479;&#12398;&#26356;&#26032;&#26085;&#26178;&#12290;&#28961;&#12369;&#12428;&#12400; NULL</text></g><!--class symbols--><g id="elem_symbols"><rect codeLine="72" fill="#FFFFFF" height="167.9034" id="symbols" rx="3" ry="3" style="stroke:#444444;stroke-width:0.5;" width="204" x="1454" y="676.7719"/><text fill="#000000" font-family="Noto Sans CJK JP" font-size="14" lengthAdjust="spacing" textLength="118" x="1497" y="698.0118">criterion_symbols</text><text fill="#000000" font-family="Noto Sans CJK JP" font-size="14" lengthAdjust="spacing" textLength="84" x="1514" y="718.2838">&#21028;&#23450;&#24335;&#12398;&#35352;&#21495;</text><line style="stroke:#444444;stroke-width:0.5;" x1="1455" x2="1657" y1="727.3157" y2="727.3157"/><ellipse cx="1465" cy="742.9517" fill="#000000" rx="3" ry="3" style="stroke:#000000;stroke-width:1.0;"/><text fill="#000000" font-family="Noto Sans CJK JP" font-size="14" lengthAdjust="spacing" textLength="90" x="1474" y="747.5557">id : TEXT &#171;PK&#187;</text><line style="stroke:#444444;stroke-width:1.0;" x1="1455" x2="1657" y1="755.5876" y2="755.5876"/><ellipse cx="1465" cy="771.2236" fill="#000000" rx="3" ry="3" style="stroke:#000000;stroke-width:1.0;"/><text fill="#000000" font-family="Noto Sans CJK JP" font-size="14" lengthAdjust="spacing" textLength="138" x="1474" y="775.8276">object_id : TEXT &#171;FK&#187;</text><ellipse cx="1465" cy="791.4955" fill="#000000" rx="3" ry="3" style="stroke:#000000;stroke-width:1.0;"/><text fill="#000000" font-family="Noto Sans CJK JP" font-size="14" lengthAdjust="spacing" textLength="178" x="1474" y="796.0995">name : TEXT&#12288;&#24335;&#12398;&#20013;&#12398;&#21517;&#21069;</text><text fill="#000000" font-family="Noto Sans CJK JP" font-size="14" lengthAdjust="spacing" textLength="101" x="1474" y="816.3714">meaning : TEXT</text><ellipse cx="1465" cy="832.0393" fill="#000000" rx="3" ry="3" style="stroke:#000000;stroke-width:1.0;"/><text fill="#000000" font-family="Noto Sans CJK JP" font-size="14" lengthAdjust="spacing" textLength="113" x="1474" y="836.6433">created_at : TEXT</text></g><!--class messages--><g id="elem_messages"><rect codeLine="81" fill="#FFFFFF" height="167.9034" id="messages" rx="3" ry="3" style="stroke:#444444;stroke-width:0.5;" width="169" x="1093.5" y="347.2719"/><text fill="#000000" font-family="Noto Sans CJK JP" font-size="14" lengthAdjust="spacing" textLength="66" x="1145" y="368.5118">messages</text><text fill="#000000" font-family="Noto Sans CJK JP" font-size="14" lengthAdjust="spacing" textLength="28" x="1164" y="388.7838">&#20250;&#35441;</text><line style="stroke:#444444;stroke-width:0.5;" x1="1094.5" x2="1261.5" y1="397.8157" y2="397.8157"/><ellipse cx="1104.5" cy="413.4517" fill="#000000" rx="3" ry="3" style="stroke:#000000;stroke-width:1.0;"/><text fill="#000000" font-family="Noto Sans CJK JP" font-size="14" lengthAdjust="spacing" textLength="90" x="1113.5" y="418.0557">id : TEXT &#171;PK&#187;</text><line style="stroke:#444444;stroke-width:1.0;" x1="1094.5" x2="1261.5" y1="426.0876" y2="426.0876"/><ellipse cx="1104.5" cy="441.7236" fill="#000000" rx="3" ry="3" style="stroke:#000000;stroke-width:1.0;"/><text fill="#000000" font-family="Noto Sans CJK JP" font-size="14" lengthAdjust="spacing" textLength="143" x="1113.5" y="446.3276">project_id : TEXT &#171;FK&#187;</text><ellipse cx="1104.5" cy="461.9955" fill="#000000" rx="3" ry="3" style="stroke:#000000;stroke-width:1.0;"/><text fill="#000000" font-family="Noto Sans CJK JP" font-size="14" lengthAdjust="spacing" textLength="67" x="1113.5" y="466.5995">role : TEXT</text><ellipse cx="1104.5" cy="482.2674" fill="#000000" rx="3" ry="3" style="stroke:#000000;stroke-width:1.0;"/><text fill="#000000" font-family="Noto Sans CJK JP" font-size="14" lengthAdjust="spacing" textLength="93" x="1113.5" y="486.8714">content : TEXT</text><ellipse cx="1104.5" cy="502.5393" fill="#000000" rx="3" ry="3" style="stroke:#000000;stroke-width:1.0;"/><text fill="#000000" font-family="Noto Sans CJK JP" font-size="14" lengthAdjust="spacing" textLength="113" x="1113.5" y="507.1433">created_at : TEXT</text></g><!--class events--><g id="elem_events"><rect codeLine="90" fill="#FFFFFF" height="228.7191" id="events" rx="3" ry="3" style="stroke:#444444;stroke-width:0.5;" width="632" x="1474" y="316.7719"/><text fill="#000000" font-family="Noto Sans CJK JP" font-size="14" lengthAdjust="spacing" textLength="44" x="1768" y="338.0118">events</text><text fill="#000000" font-family="Noto Sans CJK JP" font-size="14" lengthAdjust="spacing" textLength="70" x="1755" y="358.2838">&#25805;&#20316;&#12398;&#35352;&#37682;</text><line style="stroke:#444444;stroke-width:0.5;" x1="1475" x2="2105" y1="367.3157" y2="367.3157"/><ellipse cx="1485" cy="382.9517" fill="#000000" rx="3" ry="3" style="stroke:#000000;stroke-width:1.0;"/><text fill="#000000" font-family="Noto Sans CJK JP" font-size="14" lengthAdjust="spacing" textLength="90" x="1494" y="387.5557">id : TEXT &#171;PK&#187;</text><line style="stroke:#444444;stroke-width:1.0;" x1="1475" x2="2105" y1="395.5876" y2="395.5876"/><ellipse cx="1485" cy="411.2236" fill="#000000" rx="3" ry="3" style="stroke:#000000;stroke-width:1.0;"/><text fill="#000000" font-family="Noto Sans CJK JP" font-size="14" lengthAdjust="spacing" textLength="143" x="1494" y="415.8276">project_id : TEXT &#171;FK&#187;</text><text fill="#000000" font-family="Noto Sans CJK JP" font-size="14" lengthAdjust="spacing" textLength="306" x="1494" y="436.0995">object_id : TEXT&#12288;FK &#12394;&#12375;&#65288;&#28040;&#12360;&#12383;&#12418;&#12398;&#12418;&#25351;&#12377;&#65289;</text><text fill="#000000" font-family="Noto Sans CJK JP" font-size="14" lengthAdjust="spacing" textLength="176" x="1494" y="456.3714">relation_id : TEXT&#12288;FK &#12394;&#12375;</text><ellipse cx="1485" cy="472.0393" fill="#000000" rx="3" ry="3" style="stroke:#000000;stroke-width:1.0;"/><text fill="#000000" font-family="Noto Sans CJK JP" font-size="14" lengthAdjust="spacing" textLength="606" x="1494" y="476.6433">action : TEXT&#12288;object_created / object_&lt;status&gt; / relation_removed / file_read / mcp_read &#8230;</text><ellipse cx="1485" cy="492.3112" fill="#000000" rx="3" ry="3" style="stroke:#000000;stroke-width:1.0;"/><text fill="#000000" font-family="Noto Sans CJK JP" font-size="14" lengthAdjust="spacing" textLength="495" x="1494" y="496.9152">actor : TEXT&#12288;researcher / agent / researcher-via-agent / researcher-via-mcp</text><text fill="#000000" font-family="Noto Sans CJK JP" font-size="14" lengthAdjust="spacing" textLength="116" x="1494" y="517.1871">detail_json : TEXT</text><ellipse cx="1485" cy="532.8551" fill="#000000" rx="3" ry="3" style="stroke:#000000;stroke-width:1.0;"/><text fill="#000000" font-family="Noto Sans CJK JP" font-size="14" lengthAdjust="spacing" textLength="113" x="1494" y="537.459">created_at : TEXT</text></g><g id="elem_GMN19"><path d="M1693,730.7719 L1693,791.244 A3,3 0 0 0 1696,794.244 L2240,794.244 A3,3 0 0 0 2243,791.244 L2243,737.7719 L2233,727.7719 L1903.5,727.7719 L1899.5,546.0519 L1895.5,727.7719 L1696,727.7719 A3,3 0 0 0 1693,730.7719 " fill="#FEFFDD" style="stroke:#181818;stroke-width:0.5;"/><path d="M2233,727.7719 L2233,736.2719 A1.5,1.5 0 0 0 2234.5,737.7719 L2243,737.7719 L2233,727.7719 " fill="#FEFFDD" style="stroke:#181818;stroke-width:0.5;"/><text fill="#000000" font-family="Noto Sans CJK JP" font-size="13" lengthAdjust="spacing" textLength="290" x="1699" y="747.8519">events &#12384;&#12369;&#12399;&#22806;&#37096;&#12461;&#12540;&#12391;&#29289;&#29702;&#21066;&#38500;&#12395;&#36899;&#21205;&#12375;&#12394;&#12356;&#12290;</text><text fill="#000000" font-family="Noto Sans CJK JP" font-size="13" lengthAdjust="spacing" textLength="529" x="1699" y="766.6759">&#21364;&#19979;&#12375;&#12383;&#12458;&#12502;&#12472;&#12455;&#12463;&#12488;&#65288;3 &#20998;&#24460;&#12395;&#21066;&#38500;&#65289;&#12420; &#12399;&#12378;&#12375;&#12383;&#32218;&#12398;&#30165;&#36321;&#12399;&#12371;&#12371;&#12395;&#12384;&#12369;&#27531;&#12427;&#65288;D-110&#65289;&#12290;</text><text fill="#000000" font-family="Noto Sans CJK JP" font-size="13" lengthAdjust="spacing" textLength="406" x="1699" y="785.5">&#21066;&#38500;&#12399; ON DELETE CASCADE&#12290;&#12503;&#12525;&#12472;&#12455;&#12463;&#12488;&#12434;&#28040;&#12377;&#12392;&#12377;&#12409;&#12390;&#28040;&#12360;&#12427;&#12290;</text></g><!--link projects to objects--><g id="link_projects_objects"><path codeLine="102" d="M938.5,224.3519 C938.5,243.0919 938.5,237.5419 938.5,258.1419 " fill="none" id="projects-objects" style="stroke:#444444;stroke-width:1.0;"/><line style="stroke:#444444;stroke-width:1.0;" x1="934.5" x2="942.5" y1="220.3519" y2="220.3519"/><line style="stroke:#444444;stroke-width:1.0;" x1="934.5" x2="942.5" y1="223.3519" y2="223.3519"/><line style="stroke:#444444;stroke-width:1.0;" x1="938.5" x2="938.5" y1="224.3519" y2="216.3519"/><line style="stroke:#444444;stroke-width:1.0;" x1="938.5" x2="944.5" y1="268.1419" y2="276.1419"/><line style="stroke:#444444;stroke-width:1.0;" x1="938.5" x2="932.5" y1="268.1419" y2="276.1419"/><line style="stroke:#444444;stroke-width:1.0;" x1="938.5" x2="938.5" y1="268.1419" y2="276.1419"/><ellipse cx="938.5" cy="262.1419" fill="none" rx="4" ry="4" style="stroke:#444444;stroke-width:1.0;"/></g><!--link projects to relations--><g id="link_projects_relations"><path codeLine="103" d="M1076,224.3919 C1076,371.5719 1076,652.2719 1076,652.2719 C1076,652.2719 832.34,652.2719 613.1,652.2719 " fill="none" id="projects-relations" style="stroke:#444444;stroke-width:1.0;"/><line style="stroke:#444444;stroke-width:1.0;" x1="1072" x2="1080" y1="220.3919" y2="220.3919"/><line style="stroke:#444444;stroke-width:1.0;" x1="1072" x2="1080" y1="223.3919" y2="223.3919"/><line style="stroke:#444444;stroke-width:1.0;" x1="1076" x2="1076" y1="224.3919" y2="216.3919"/><line style="stroke:#444444;stroke-width:1.0;" x1="603.1" x2="595.1" y1="652.2719" y2="658.2719"/><line style="stroke:#444444;stroke-width:1.0;" x1="603.1" x2="595.1" y1="652.2719" y2="646.2719"/><line style="stroke:#444444;stroke-width:1.0;" x1="603.1" x2="595.1" y1="652.2719" y2="652.2719"/><ellipse cx="609.1" cy="652.2719" fill="none" rx="4" ry="4" style="stroke:#444444;stroke-width:1.0;"/></g><!--link projects to messages--><g id="link_projects_messages"><path codeLine="104" d="M1120.83,224.3519 C1120.83,265.2019 1120.83,288.1719 1120.83,329.0419 " fill="none" id="projects-messages" style="stroke:#444444;stroke-width:1.0;"/><line style="stroke:#444444;stroke-width:1.0;" x1="1116.83" x2="1124.83" y1="220.3519" y2="220.3519"/><line style="stroke:#444444;stroke-width:1.0;" x1="1116.83" x2="1124.83" y1="223.3519" y2="223.3519"/><line style="stroke:#444444;stroke-width:1.0;" x1="1120.83" x2="1120.83" y1="224.3519" y2="216.3519"/><line style="stroke:#444444;stroke-width:1.0;" x1="1120.83" x2="1126.83" y1="339.0419" y2="347.0419"/><line style="stroke:#444444;stroke-width:1.0;" x1="1120.83" x2="1114.83" y1="339.0419" y2="347.0419"/><line style="stroke:#444444;stroke-width:1.0;" x1="1120.83" x2="1120.83" y1="339.0419" y2="347.0419"/><ellipse cx="1120.83" cy="333.0419" fill="none" rx="4" ry="4" style="stroke:#444444;stroke-width:1.0;"/></g><!--link projects to events--><g id="link_projects_events"><path codeLine="105" d="M1148.17,224.5119 C1148.17,279.1719 1148.17,332.2719 1148.17,332.2719 C1148.17,332.2719 1293.77,332.2719 1455.78,332.2719 " fill="none" id="projects-events" style="stroke:#444444;stroke-width:1.0;"/><line style="stroke:#444444;stroke-width:1.0;" x1="1144.17" x2="1152.17" y1="220.5119" y2="220.5119"/><line style="stroke:#444444;stroke-width:1.0;" x1="1144.17" x2="1152.17" y1="223.5119" y2="223.5119"/><line style="stroke:#444444;stroke-width:1.0;" x1="1148.17" x2="1148.17" y1="224.5119" y2="216.5119"/><line style="stroke:#444444;stroke-width:1.0;" x1="1465.78" x2="1473.78" y1="332.2719" y2="326.2719"/><line style="stroke:#444444;stroke-width:1.0;" x1="1465.78" x2="1473.78" y1="332.2719" y2="338.2719"/><line style="stroke:#444444;stroke-width:1.0;" x1="1465.78" x2="1473.78" y1="332.2719" y2="332.2719"/><ellipse cx="1459.78" cy="332.2719" fill="none" rx="4" ry="4" style="stroke:#444444;stroke-width:1.0;"/></g><!--link objects to relations--><g id="link_objects_relations"><path codeLine="106" d="M582,594.3719 C582,614.4019 582,608.6219 582,627.8419 " fill="none" id="objects-relations" style="stroke:#444444;stroke-width:1.0;"/><line style="stroke:#444444;stroke-width:1.0;" x1="578" x2="586" y1="590.3719" y2="590.3719"/><line style="stroke:#444444;stroke-width:1.0;" x1="578" x2="586" y1="593.3719" y2="593.3719"/><line style="stroke:#444444;stroke-width:1.0;" x1="582" x2="582" y1="594.3719" y2="586.3719"/><line style="stroke:#444444;stroke-width:1.0;" x1="582" x2="588" y1="637.8419" y2="645.8419"/><line style="stroke:#444444;stroke-width:1.0;" x1="582" x2="576" y1="637.8419" y2="645.8419"/><line style="stroke:#444444;stroke-width:1.0;" x1="582" x2="582" y1="637.8419" y2="645.8419"/><ellipse cx="582" cy="631.8419" fill="none" rx="4" ry="4" style="stroke:#444444;stroke-width:1.0;"/><text fill="#000000" font-family="Noto Sans CJK JP" font-size="13" lengthAdjust="spacing" textLength="45" x="536" y="612.1919">subject</text></g><!--link objects to relations--><g id="link_objects_relations"><path codeLine="107" d="M588.5,594.3719 C588.5,614.4019 588.5,608.6219 588.5,627.8419 " fill="none" id="objects-relations-1" style="stroke:#444444;stroke-width:1.0;"/><line style="stroke:#444444;stroke-width:1.0;" x1="584.5" x2="592.5" y1="590.3719" y2="590.3719"/><line style="stroke:#444444;stroke-width:1.0;" x1="584.5" x2="592.5" y1="593.3719" y2="593.3719"/><line style="stroke:#444444;stroke-width:1.0;" x1="588.5" x2="588.5" y1="594.3719" y2="586.3719"/><line style="stroke:#444444;stroke-width:1.0;" x1="588.5" x2="594.5" y1="637.8419" y2="645.8419"/><line style="stroke:#444444;stroke-width:1.0;" x1="588.5" x2="582.5" y1="637.8419" y2="645.8419"/><line style="stroke:#444444;stroke-width:1.0;" x1="588.5" x2="588.5" y1="637.8419" y2="645.8419"/><ellipse cx="588.5" cy="631.8419" fill="none" rx="4" ry="4" style="stroke:#444444;stroke-width:1.0;"/><text fill="#000000" font-family="Noto Sans CJK JP" font-size="13" lengthAdjust="spacing" textLength="39" x="548.5" y="632.1919">object</text></g><!--link objects to assets--><g id="link_objects_assets"><path codeLine="108" d="M817,594.3719 C817,618.0719 817,619.0419 817,641.3119 " fill="none" id="objects-assets" style="stroke:#444444;stroke-width:1.0;"/><line style="stroke:#444444;stroke-width:1.0;" x1="813" x2="821" y1="590.3719" y2="590.3719"/><line style="stroke:#444444;stroke-width:1.0;" x1="813" x2="821" y1="593.3719" y2="593.3719"/><line style="stroke:#444444;stroke-width:1.0;" x1="817" x2="817" y1="594.3719" y2="586.3719"/><line style="stroke:#444444;stroke-width:1.0;" x1="817" x2="817" y1="645.3119" y2="656.3119"/><ellipse cx="817" cy="645.3119" fill="none" rx="4" ry="4" style="stroke:#444444;stroke-width:1.0;"/><line style="stroke:#444444;stroke-width:1.0;" x1="821" x2="813" y1="652.3119" y2="652.3119"/><text fill="#000000" font-family="Noto Sans CJK JP" font-size="13" lengthAdjust="spacing" textLength="65" x="751" y="617.4219">type=asset</text></g><!--link objects to measurements--><g id="link_objects_measurements"><path codeLine="109" d="M1045.5,594.3719 C1045.5,637.7719 1045.5,659.0619 1045.5,692.1519 " fill="none" id="objects-measurements" style="stroke:#444444;stroke-width:1.0;"/><line style="stroke:#444444;stroke-width:1.0;" x1="1041.5" x2="1049.5" y1="590.3719" y2="590.3719"/><line style="stroke:#444444;stroke-width:1.0;" x1="1041.5" x2="1049.5" y1="593.3719" y2="593.3719"/><line style="stroke:#444444;stroke-width:1.0;" x1="1045.5" x2="1045.5" y1="594.3719" y2="586.3719"/><line style="stroke:#444444;stroke-width:1.0;" x1="1045.5" x2="1045.5" y1="696.1519" y2="707.1519"/><ellipse cx="1045.5" cy="696.1519" fill="none" rx="4" ry="4" style="stroke:#444444;stroke-width:1.0;"/><line style="stroke:#444444;stroke-width:1.0;" x1="1049.5" x2="1041.5" y1="703.1519" y2="703.1519"/><text fill="#000000" font-family="Noto Sans CJK JP" font-size="13" lengthAdjust="spacing" textLength="118" x="926.5" y="642.8419">type=measurement</text></g><!--link objects to symbols--><g id="link_objects_symbols"><path codeLine="110" d="M1052,594.4919 C1052,650.5419 1052,692.2719 1052,692.2719 C1052,692.2719 1288.39,692.2719 1435.7,692.2719 " fill="none" id="objects-symbols" style="stroke:#444444;stroke-width:1.0;"/><line style="stroke:#444444;stroke-width:1.0;" x1="1048" x2="1056" y1="590.4919" y2="590.4919"/><line style="stroke:#444444;stroke-width:1.0;" x1="1048" x2="1056" y1="593.4919" y2="593.4919"/><line style="stroke:#444444;stroke-width:1.0;" x1="1052" x2="1052" y1="594.4919" y2="586.4919"/><line style="stroke:#444444;stroke-width:1.0;" x1="1445.7" x2="1453.7" y1="692.2719" y2="686.2719"/><line style="stroke:#444444;stroke-width:1.0;" x1="1445.7" x2="1453.7" y1="692.2719" y2="698.2719"/><line style="stroke:#444444;stroke-width:1.0;" x1="1445.7" x2="1453.7" y1="692.2719" y2="692.2719"/><ellipse cx="1439.7" cy="692.2719" fill="none" rx="4" ry="4" style="stroke:#444444;stroke-width:1.0;"/><text fill="#000000" font-family="Noto Sans CJK JP" font-size="13" lengthAdjust="spacing" textLength="98" x="1100.96" y="688.3519">type=prediction</text></g><!--SRC=[fLV_JnH75F_z_ee9ZR4r7cXRJMgi2OMZKGXLmAG_c5o6spbkTNVdd9d3K3LXzwmU0j5MXM9Dn6W5f81jhI21alHFwR1ty5F_XRwPtRtT0yIsNYvti- -zULy-yzwRjmSHjee5ZAIxY7hFTPc2_BrMET1QBBPZWGzSO8Jdp9n5wejcVjdIGYDgHwQdFNKGLHUUda2SvT82bvZP0giMdYiG6ojXq3oBZFvcnfMDhT-N_T47rIaFrdvbScjZtRyz3HPp39Goapge1TNNMOSA0eJm3tDE16ykCdgHv4JMDC09iDxJqwjiA8NBYz9TGWRDyPOZnz86H92sgK6iPjj0VyvybXAci4WSi2pVakKrwMt8yfHUl05F8X16KYb-oNIAc64R6IIFIvRee8xenZP1JTrKKDIB7OxQpdIYCsUR4iAyW0rwnNG6K1vRd2GuZ9OSeuqoXp1qF46tJ8U8eI91b8a2JJ1o5WIDhgOG-WBdBWs4-otAq0ST-gCub1c4XTHFzGUehOpHAut4wwc2QH2KCncSOx2s2TWpU2f57C1c23M5uF8BJctwVctkTHEWZYAYTkGGCWrq0lLblkv39q-UxJnr2eZfjEOu2fk0fvyPfI9RnA8G4kNmSA1MbXz8RqwMvsLv632lpQrATyQV6PMUAxqHwOr9RrGTWLAIOmGBOcInIAe6O4IM5edJmBaUHqBx6mAHtWjPdf3UYlHcfBSaonKTMYZrpiZYf8ibEWA9GqWVNJt2ooN2HP39XQ4Y5GN2JGuFHKOCCnToR89vYH4Rl8qoEr2bCxGUPpyrXk8dNGTrErjF7ssz_WtGQqyVFNeiG2ikexhOvcgbklApTAUb-vqSzlpACt_neRzs1pRw6zzkJrTsxCmsMgdBg-BL5hMVb9a3Pi8Aj0U26HGzK-4C167n8Iw83GlJuOALmc1DkmXfJWojXmiiIZpM0pWNAIU6QWFKoPlCrcj65FfwgQoOW-7slNEZL3HsK1DvmOY5rI50PaZtcNHVI1UoxRREXZhl_VA1b_hVpWpI02SnneO1-76Io1Ar591744N_a2PJevJJ4epa2IDEz63fK0KDZcKVmmr7zd_0VmlY2Mo33Wt0HerLenfGGqZtyF1ivs7KaK1t5xRWsldkq-VEPpwCMOV3mneaki5y5FIR92dUt8ByiLM_SWkEEOZR_8O0h80lo9pkxijycUdH3BWipBov8v-WdNzyx7YihVhenURwHkt-B5HGz_ckhg1-02eJPnixmLwI2RGIFG0mWoA5GbEtsEBZwiIwHYufyH_m8onFrTd5OO0pyMNdBbP_V5MTU5cT_4bTnCDUxSOJrHoWwxelaN8qwMNS6FYGtKyjSBMX9yp-uDzPrjw6_7VMpdv9chX1LFFH9ZPN5XGiTyVzaN6DD7RKvPf8v7sJqeRIWeu4Vc-kFToQ-oL4DY2-Nw4pQZNSTr0rGZMvV-iQ6GpF_jxuvlgZ0CtjiL-rXm7lVVpRYJC0sj69TCURX8oilgv85xwFfQUcCVYjZjsIxbIGpr4ht7kxDes3owpE3Us54KFZ20adWpvpAcfNIYiaDHtKGddJ8l28rThE5OFbNyFF8nCmmEn_oyJ4zA29qsyXWshGQ121JIjxaLFddOTKdtgkNKkdwTLeLDX5hryQkpXHakrY16URYeQFdOh0YV0AsK-4xY5nBMgs9_HGydamMEmGQUWgeM22jjDcLDQXP3p6f59wLEYdGb0RqNmK5efoDnmwt2N_sSHsULPw2we3kJEraRdQtPl-oEtjARY0vxU7dy8x0MILpgqRq910XJ_-QdDbL1CVxvxT87q_GNxbfly7zApvG9Dw9V5kWD4bwJuCDjQMLKEjJJxOMdwYwVVqTpvmhBeugiTCFK0TKTi3ow5VI-YhRjIUwShqPL1RQszRQti616HvKfONahv8xtjTIbFw9GH-tqZtULXStgZIIHn3psx_0000]--></g></svg>