<?xml version="1.0" encoding="us-ascii" standalone="no"?><svg xmlns="http://www.w3.org/2000/svg" xmlns:xlink="http://www.w3.org/1999/xlink" contentStyleType="text/css" height="790px" preserveAspectRatio="none" style="width:2413px;height:790px;background:#FFFFFF;" version="1.1" viewBox="0 0 2413 790" width="2413px" zoomAndPan="magnify"><defs/><g><text fill="#000000" font-family="Noto Sans CJK JP" font-size="14" font-weight="bold" lengthAdjust="spacing" textLength="248" x="1075.75" y="26.2399">&#35352;&#37682;&#12398;&#20181;&#32068;&#12415;&#12392;&#25805;&#20316;&#12377;&#12427;&#20027;&#20307;&#65288;alpha&#65289;</text><!--cluster ??--><g id="cluster_&#20027;&#20307;"><path d="M1468.5,47.8039 L1496.5,47.8039 A4.5,4.5 0 0 1 1499.5,50.8039 L1506.5,74.0758 L2403.5,74.0758 A3,3 0 0 1 2406.5,77.0758 L2406.5,218.8039 A3,3 0 0 1 2403.5,221.8039 L1468.5,221.8039 A3,3 0 0 1 1465.5,218.8039 L1465.5,50.8039 A3,3 0 0 1 1468.5,47.8039 " fill="#FDEBD0" style="stroke:#000000;stroke-width:1.5;"/><line style="stroke:#000000;stroke-width:1.5;" x1="1465.5" x2="1506.5" y1="74.0758" y2="74.0758"/><text fill="#000000" font-family="Noto Sans CJK JP" font-size="14" font-weight="bold" lengthAdjust="spacing" textLength="28" x="1469.5" y="66.0438">&#20027;&#20307;</text></g><!--cluster ?????alpha ? SQLite?--><g id="cluster_&#35352;&#37682;&#27231;&#27083;&#65288;alpha &#12398; SQLite&#65289;"><path d="M477.5,57.8039 L665.5,57.8039 A4.5,4.5 0 0 1 668.5,60.8039 L675.5,84.0758 L1438.5,84.0758 A3,3 0 0 1 1441.5,87.0758 L1441.5,685.8039 A3,3 0 0 1 1438.5,688.8039 L477.5,688.8039 A3,3 0 0 1 474.5,685.8039 L474.5,60.8039 A3,3 0 0 1 477.5,57.8039 " fill="#EBF5FB" style="stroke:#000000;stroke-width:1.5;"/><line style="stroke:#000000;stroke-width:1.5;" x1="474.5" x2="675.5" y1="84.0758" y2="84.0758"/><text fill="#000000" font-family="Noto Sans CJK JP" font-size="14" font-weight="bold" lengthAdjust="spacing" textLength="188" x="478.5" y="76.0438">&#35352;&#37682;&#27231;&#27083;&#65288;alpha &#12398; SQLite&#65289;</text></g><!--class Researcher--><g id="elem_Researcher"><rect codeLine="20" fill="#FFFFFF" height="99.0876" id="Researcher" rx="3" ry="3" style="stroke:#444444;stroke-width:0.5;" width="221" x="1940" y="96.8039"/><text fill="#000000" font-family="Noto Sans CJK JP" font-size="14" lengthAdjust="spacing" textLength="42" x="2029.5" y="118.0438">&#30740;&#31350;&#32773;</text><text fill="#000000" font-family="Noto Sans CJK JP" font-size="14" lengthAdjust="spacing" textLength="84" x="2008.5" y="138.3157">(Researcher)</text><line style="stroke:#444444;stroke-width:0.5;" x1="1941" x2="2160" y1="147.3477" y2="147.3477"/><text fill="#000000" font-family="Noto Sans CJK JP" font-size="14" lengthAdjust="spacing" textLength="137" x="1946" y="167.5876">&#35441;&#12377; / &#30906;&#23450;&#12539;&#21364;&#19979;&#12377;&#12427;</text><text fill="#000000" font-family="Noto Sans CJK JP" font-size="14" lengthAdjust="spacing" textLength="209" x="1946" y="187.8596">&#30011;&#38754;&#12391;&#25805;&#20316;&#65288;actor=researcher&#65289;</text></g><!--class Agent--><g id="elem_Agent"><rect codeLine="24" fill="#FFFFFF" height="119.3596" id="Agent" rx="3" ry="3" style="stroke:#444444;stroke-width:0.5;" width="194" x="2196.5" y="86.8039"/><text fill="#000000" font-family="Noto Sans CJK JP" font-size="14" lengthAdjust="spacing" textLength="69" x="2259" y="108.0438">AI&#65288;&#20250;&#35441;&#65289;</text><text fill="#000000" font-family="Noto Sans CJK JP" font-size="14" lengthAdjust="spacing" textLength="79" x="2254" y="128.3157">(claude CLI)</text><line style="stroke:#444444;stroke-width:0.5;" x1="2197.5" x2="2389.5" y1="137.3477" y2="137.3477"/><text fill="#000000" font-family="Noto Sans CJK JP" font-size="14" lengthAdjust="spacing" textLength="168" x="2202.5" y="157.5876">&#27083;&#36896;&#21270;&#12539;&#20195;&#26367;&#20206;&#35500;&#12539;&#20104;&#28204;&#12539;</text><text fill="#000000" font-family="Noto Sans CJK JP" font-size="14" lengthAdjust="spacing" textLength="126" x="2202.5" y="177.8596">&#27425;&#12398;&#28204;&#23450;&#12434;&#25552;&#26696;&#12377;&#12427;</text><text fill="#000000" font-family="Noto Sans CJK JP" font-size="14" lengthAdjust="spacing" textLength="182" x="2202.5" y="198.1315">&#25552;&#26696;&#12399;&#24517;&#12378;&#25552;&#26696;&#20013;&#12391;&#29983;&#12414;&#12428;&#12427;</text></g><!--class Mcp--><g id="elem_Mcp"><rect codeLine="29" fill="#FFFFFF" height="99.0876" id="Mcp" rx="3" ry="3" style="stroke:#444444;stroke-width:0.5;" width="208" x="1696.5" y="96.8039"/><text fill="#000000" font-family="Noto Sans CJK JP" font-size="14" lengthAdjust="spacing" textLength="84" x="1758.5" y="118.0438">Claude Code</text><text fill="#000000" font-family="Noto Sans CJK JP" font-size="14" lengthAdjust="spacing" textLength="39" x="1781" y="138.3157">(MCP)</text><line style="stroke:#444444;stroke-width:0.5;" x1="1697.5" x2="1903.5" y1="147.3477" y2="147.3477"/><text fill="#000000" font-family="Noto Sans CJK JP" font-size="14" lengthAdjust="spacing" textLength="165" x="1702.5" y="167.5876">&#21516;&#12376;&#35352;&#37682;&#12434;&#35501;&#12416; / &#25552;&#26696;&#12377;&#12427;</text><text fill="#000000" font-family="Noto Sans CJK JP" font-size="14" lengthAdjust="spacing" textLength="196" x="1702.5" y="187.8596">&#30906;&#23450;&#12539;&#21364;&#19979;&#12399;&#30330;&#35328;&#12398;&#24341;&#29992;&#12364;&#24517;&#38920;</text></g><!--class System--><g id="elem_System"><rect codeLine="33" fill="#FFFFFF" height="119.3596" id="System" rx="3" ry="3" style="stroke:#444444;stroke-width:0.5;" width="180" x="1481.5" y="86.8039"/><text fill="#000000" font-family="Noto Sans CJK JP" font-size="14" lengthAdjust="spacing" textLength="83" x="1530" y="108.0438">rescicle Core</text><text fill="#000000" font-family="Noto Sans CJK JP" font-size="14" lengthAdjust="spacing" textLength="58" x="1542.5" y="128.3157">(System)</text><line style="stroke:#444444;stroke-width:0.5;" x1="1482.5" x2="1660.5" y1="137.3477" y2="137.3477"/><text fill="#000000" font-family="Noto Sans CJK JP" font-size="14" lengthAdjust="spacing" textLength="116" x="1487.5" y="157.5876">operations &#12398;&#26908;&#35388;</text><text fill="#000000" font-family="Noto Sans CJK JP" font-size="14" lengthAdjust="spacing" textLength="168" x="1487.5" y="177.8596">&#12501;&#12449;&#12452;&#12523;&#12398;&#19968;&#35239;&#12392;&#35501;&#12415;&#21462;&#12426;</text><text fill="#000000" font-family="Noto Sans CJK JP" font-size="14" lengthAdjust="spacing" textLength="126" x="1487.5" y="198.1315">&#21364;&#19979;&#12398; 3 &#20998;&#24460;&#12398;&#21066;&#38500;</text></g><!--class Project--><g id="elem_Project"><rect codeLine="41" fill="#FFFFFF" height="99.0876" id="Project" rx="3" ry="3" style="stroke:#444444;stroke-width:0.5;" width="244" x="638.5" y="96.8039"/><text fill="#000000" font-family="Noto Sans CJK JP" font-size="14" lengthAdjust="spacing" textLength="28" x="746.5" y="118.0438">&#30740;&#31350;</text><text fill="#000000" font-family="Noto Sans CJK JP" font-size="14" lengthAdjust="spacing" textLength="63" x="729" y="138.3157">(projects)</text><line style="stroke:#444444;stroke-width:0.5;" x1="639.5" x2="881.5" y1="147.3477" y2="147.3477"/><text fill="#000000" font-family="Noto Sans CJK JP" font-size="14" lengthAdjust="spacing" textLength="229" x="644.5" y="167.5876">name &#183; root_path&#65288;&#30740;&#31350;&#12501;&#12457;&#12523;&#12480;&#65289;</text><text fill="#000000" font-family="Noto Sans CJK JP" font-size="14" lengthAdjust="spacing" textLength="232" x="644.5" y="187.8596">&#31471;&#26411;&#12395; 1 &#12388;&#12398; DB &#12395;&#20840;&#30740;&#31350;&#65288;D-111&#65289;</text></g><!--class Object--><g id="elem_Object"><rect codeLine="45" fill="#FFFFFF" height="159.9034" id="Object" rx="3" ry="3" style="stroke:#444444;stroke-width:0.5;" width="396" x="1029.5" y="316.8039"/><text fill="#000000" font-family="Noto Sans CJK JP" font-size="14" lengthAdjust="spacing" textLength="112" x="1171.5" y="338.0438">&#30740;&#31350;&#12458;&#12502;&#12472;&#12455;&#12463;&#12488;</text><text fill="#000000" font-family="Noto Sans CJK JP" font-size="14" lengthAdjust="spacing" textLength="58" x="1198.5" y="358.3157">(objects)</text><line style="stroke:#444444;stroke-width:0.5;" x1="1030.5" x2="1424.5" y1="367.3477" y2="367.3477"/><text fill="#000000" font-family="Noto Sans CJK JP" font-size="14" lengthAdjust="spacing" textLength="384" x="1035.5" y="387.5876">type&#65288;&#30740;&#31350;&#27083;&#36896; 1/2 &#21442;&#29031;&#12290;protocol / observation &#31561;&#12399;&#28961;&#12356;&#65289;</text><text fill="#000000" font-family="Noto Sans CJK JP" font-size="14" lengthAdjust="spacing" textLength="167" x="1035.5" y="407.8596">origin : researcher / agent</text><text fill="#000000" font-family="Noto Sans CJK JP" font-size="14" lengthAdjust="spacing" textLength="326" x="1035.5" y="428.1315">status : proposed / confirmed / rejected / archived</text><text fill="#000000" font-family="Noto Sans CJK JP" font-size="14" lengthAdjust="spacing" textLength="239" x="1035.5" y="448.4034">title &#183; body &#183; note&#65288;&#35036;&#36275;&#65289;&#183; criterion</text><text fill="#000000" font-family="Noto Sans CJK JP" font-size="14" lengthAdjust="spacing" textLength="252" x="1035.5" y="468.6753">&#19978;&#26360;&#12365;&#12377;&#12427;&#12290;Revision &#12399;&#28961;&#12356;&#65288;D-110&#65289;</text></g><!--class Relation--><g id="elem_Relation"><rect codeLine="52" fill="#FFFFFF" height="119.3596" id="Relation" rx="3" ry="3" style="stroke:#444444;stroke-width:0.5;" width="270" x="1155.5" y="553.8039"/><text fill="#000000" font-family="Noto Sans CJK JP" font-size="14" lengthAdjust="spacing" textLength="56" x="1262.5" y="575.0438">&#12388;&#12394;&#12364;&#12426;</text><text fill="#000000" font-family="Noto Sans CJK JP" font-size="14" lengthAdjust="spacing" textLength="68" x="1256.5" y="595.3157">(relations)</text><line style="stroke:#444444;stroke-width:0.5;" x1="1156.5" x2="1424.5" y1="604.3477" y2="604.3477"/><text fill="#000000" font-family="Noto Sans CJK JP" font-size="14" lengthAdjust="spacing" textLength="116" x="1161.5" y="624.5876">predicate&#65288;6 &#12388;&#65289;</text><text fill="#000000" font-family="Noto Sans CJK JP" font-size="14" lengthAdjust="spacing" textLength="258" x="1161.5" y="644.8596">status : proposed / confirmed / rejected</text><text fill="#000000" font-family="Noto Sans CJK JP" font-size="14" lengthAdjust="spacing" textLength="207" x="1161.5" y="665.1315">&#12399;&#12378;&#12377;&#12392;&#34892;&#12372;&#12392;&#28040;&#12360;&#12427;&#65288;D-110&#65289;</text></g><!--class Ext--><g id="elem_Ext"><rect codeLine="57" fill="#FFFFFF" height="99.0876" id="Ext" rx="3" ry="3" style="stroke:#444444;stroke-width:0.5;" width="269" x="851" y="563.8039"/><text fill="#000000" font-family="Noto Sans CJK JP" font-size="14" lengthAdjust="spacing" textLength="56" x="957.5" y="585.0438">&#20184;&#23646;&#12398;&#34920;</text><line style="stroke:#444444;stroke-width:0.5;" x1="852" x2="1119" y1="594.0758" y2="594.0758"/><text fill="#000000" font-family="Noto Sans CJK JP" font-size="14" lengthAdjust="spacing" textLength="252" x="857" y="614.3157">assets&#65288;&#30456;&#23550;&#12497;&#12473; &#183; &#12469;&#12452;&#12474; &#183; &#26356;&#26032;&#26085;&#26178;&#65289;</text><text fill="#000000" font-family="Noto Sans CJK JP" font-size="14" lengthAdjust="spacing" textLength="219" x="857" y="634.5876">measurements&#65288;performed_at&#65289;</text><text fill="#000000" font-family="Noto Sans CJK JP" font-size="14" lengthAdjust="spacing" textLength="257" x="857" y="654.8596">criterion_symbols&#65288;name &#183; meaning&#65289;</text></g><!--class Event--><g id="elem_Event"><rect codeLine="62" fill="#FFFFFF" height="139.6315" id="Event" rx="3" ry="3" style="stroke:#444444;stroke-width:0.5;" width="287" x="707" y="326.8039"/><text fill="#000000" font-family="Noto Sans CJK JP" font-size="14" lengthAdjust="spacing" textLength="56" x="822.5" y="348.0438">&#12452;&#12505;&#12531;&#12488;</text><text fill="#000000" font-family="Noto Sans CJK JP" font-size="14" lengthAdjust="spacing" textLength="54" x="823.5" y="368.3157">(events)</text><line style="stroke:#444444;stroke-width:0.5;" x1="708" x2="993" y1="377.3477" y2="377.3477"/><text fill="#000000" font-family="Noto Sans CJK JP" font-size="14" lengthAdjust="spacing" textLength="275" x="713" y="397.5876">action : object_created / object_&lt;status&gt; /</text><text fill="#000000" font-family="Noto Sans CJK JP" font-size="14" lengthAdjust="spacing" textLength="245" x="713" y="417.8596">relation_created / relation_removed /</text><text fill="#000000" font-family="Noto Sans CJK JP" font-size="14" lengthAdjust="spacing" textLength="162" x="713" y="438.1315">file_read / mcp_read / &#8230;</text><text fill="#000000" font-family="Noto Sans CJK JP" font-size="14" lengthAdjust="spacing" textLength="244" x="713" y="458.4034">actor &#183; detail_json&#65288;&#24341;&#29992;&#12394;&#12393;&#65289;&#183; &#26085;&#26178;</text></g><!--class Message--><g id="elem_Message"><rect codeLine="68" fill="#FFFFFF" height="78.8157" id="Message" rx="3" ry="3" style="stroke:#444444;stroke-width:0.5;" width="144" x="490.5" y="357.3039"/><text fill="#000000" font-family="Noto Sans CJK JP" font-size="14" lengthAdjust="spacing" textLength="28" x="548.5" y="378.5438">&#20250;&#35441;</text><text fill="#000000" font-family="Noto Sans CJK JP" font-size="14" lengthAdjust="spacing" textLength="76" x="524.5" y="398.8157">(messages)</text><line style="stroke:#444444;stroke-width:0.5;" x1="491.5" x2="633.5" y1="407.8477" y2="407.8477"/><text fill="#000000" font-family="Noto Sans CJK JP" font-size="14" lengthAdjust="spacing" textLength="132" x="496.5" y="428.0876">role &#183; content &#183; &#26085;&#26178;</text></g><g id="elem_GMN27"><path d="M6,573.8039 L6,653.1 A3,3 0 0 0 9,656.1 L456,656.1 A3,3 0 0 0 459,653.1 L459,580.8039 L449,570.8039 L9,570.8039 A3,3 0 0 0 6,573.8039 " fill="#FEFFDD" style="stroke:#181818;stroke-width:0.5;"/><path d="M449,570.8039 L449,579.3039 A1.5,1.5 0 0 0 450.5,580.8039 L459,580.8039 L449,570.8039 " fill="#FEFFDD" style="stroke:#181818;stroke-width:1.0;"/><text fill="#000000" font-family="Noto Sans CJK JP" font-size="13" lengthAdjust="spacing" textLength="395" x="12" y="590.8839">status &#12399; curation &#29366;&#24907;&#12391;&#12354;&#12426;&#31185;&#23398;&#30340;&#30495;&#20605;&#12391;&#12399;&#12394;&#12356;&#65288;Node D-15&#65289;&#12290;</text><text fill="#000000" font-family="Noto Sans CJK JP" font-size="13" lengthAdjust="spacing" textLength="403" x="12" y="609.7079">AI &#32076;&#30001;&#12398;&#29366;&#24907;&#22793;&#26356;&#12399; proposed &#8594; confirmed / rejected / archived &#12392;</text><text fill="#000000" font-family="Noto Sans CJK JP" font-size="13" lengthAdjust="spacing" textLength="381" x="12" y="628.5319">confirmed &#8594; archived &#12384;&#12369;&#12290;&#30906;&#23450;&#12539;&#21364;&#19979;&#12434;&#35206;&#12379;&#12394;&#12356;&#65288;D-120&#65289;&#12290;</text><text fill="#000000" font-family="Noto Sans CJK JP" font-size="13" lengthAdjust="spacing" textLength="432" x="12" y="647.356">&#21364;&#19979;&#12375;&#12383;&#12418;&#12398;&#12399; 3 &#20998;&#24460;&#12395;&#28040;&#12360;&#12289;events &#12395;&#30165;&#36321;&#12384;&#12369;&#27531;&#12427;&#65288;D-110 &#12391;&#20445;&#30041;&#65289;&#12290;</text></g><g id="elem_GMN30"><path d="M1107,738.8039 L1107,780.4519 A3,3 0 0 0 1110,783.4519 L1471,783.4519 A3,3 0 0 0 1474,780.4519 L1474,745.8039 L1464,735.8039 L1294.5,735.8039 L1290.5,673.0739 L1286.5,735.8039 L1110,735.8039 A3,3 0 0 0 1107,738.8039 " fill="#FEFFDD" style="stroke:#181818;stroke-width:0.5;"/><path d="M1464,735.8039 L1464,744.3039 A1.5,1.5 0 0 0 1465.5,745.8039 L1474,745.8039 L1464,735.8039 " fill="#FEFFDD" style="stroke:#181818;stroke-width:0.5;"/><text fill="#000000" font-family="Noto Sans CJK JP" font-size="13" lengthAdjust="spacing" textLength="346" x="1113" y="755.8839">&#27083;&#36896;&#30340; / &#21028;&#26029;&#30340;&#12398;&#21306;&#21029;&#12392;&#33258;&#21205;&#30906;&#23450;&#12399;&#28961;&#12356;&#12290;1 &#26412;&#12378;&#12388;&#27770;&#12417;&#12427;&#12290;</text><text fill="#000000" font-family="Noto Sans CJK JP" font-size="13" lengthAdjust="spacing" textLength="285" x="1113" y="774.7079">Revision pin &#12418; retracted_at &#12418;&#28961;&#12356;&#65288;D-110&#65289;&#12290;</text></g><!--reverse link Project to Object--><g id="link_Project_Object"><path codeLine="73" d="M796.2681,206.0703 C817.0081,236.7003 840.91,264.5439 877.5,286.8039 C929.64,318.5239 952.94,299.6239 1011.5,316.8039 C1017.34,318.5139 1023.26,320.3139 1029.21,322.1639 " fill="none" id="Project-backto-Object" style="stroke:#444444;stroke-width:1.0;"/><polygon fill="#444444" points="789.54,196.1339,789.5919,203.3448,796.2681,206.0703,796.2162,198.8594,789.54,196.1339" style="stroke:#444444;stroke-width:1.0;"/><text fill="#000000" font-family="Noto Sans CJK JP" font-size="11" lengthAdjust="spacing" textLength="6" x="787.0391" y="216.654">1</text><text fill="#000000" font-family="Noto Sans CJK JP" font-size="11" lengthAdjust="spacing" textLength="17" x="1004.7785" y="316.9903">0..*</text></g><!--reverse link Project to Relation--><g id="link_Project_Relation"><path codeLine="74" d="M721.2019,206.1044 C678.0119,276.3044 621.62,396.2639 689.5,476.8039 C754.6,554.0439 1040.08,527.0839 1137.5,553.8039 C1143.4,555.4239 1149.38,557.1839 1155.4,559.0439 " fill="none" id="Project-backto-Relation" style="stroke:#444444;stroke-width:1.0;"/><polygon fill="#444444" points="727.49,195.8839,720.9391,198.8981,721.2019,206.1044,727.7528,203.0902,727.49,195.8839" style="stroke:#444444;stroke-width:1.0;"/><text fill="#000000" font-family="Noto Sans CJK JP" font-size="11" lengthAdjust="spacing" textLength="6" x="716.4261" y="216.7298">1</text><text fill="#000000" font-family="Noto Sans CJK JP" font-size="11" lengthAdjust="spacing" textLength="17" x="1130.5469" y="553.4418">0..*</text></g><!--reverse link Project to Event--><g id="link_Project_Event"><path codeLine="75" d="M782.1549,207.0872 C795.6549,244.3772 810.41,285.1039 825.49,326.7339 " fill="none" id="Project-backto-Event" style="stroke:#444444;stroke-width:1.0;"/><polygon fill="#444444" points="778.07,195.8039,776.3513,202.8072,782.1549,207.0872,783.8736,200.0839,778.07,195.8039" style="stroke:#444444;stroke-width:1.0;"/><text fill="#000000" font-family="Noto Sans CJK JP" font-size="11" lengthAdjust="spacing" textLength="6" x="774.1189" y="216.6385">1</text><text fill="#000000" font-family="Noto Sans CJK JP" font-size="11" lengthAdjust="spacing" textLength="17" x="804.6154" y="315.5997">0..*</text></g><!--reverse link Project to Message--><g id="link_Project_Message"><path codeLine="76" d="M693.3295,203.9401 C679.2795,216.9001 673.65,223.2239 661.5,237.8039 C630.1,275.4739 601.19,323.8939 582.82,357.1439 " fill="none" id="Project-backto-Message" style="stroke:#444444;stroke-width:1.0;"/><polygon fill="#444444" points="702.15,195.8039,695.0277,196.9318,693.3295,203.9401,700.4518,202.8122,702.15,195.8039" style="stroke:#444444;stroke-width:1.0;"/><text fill="#000000" font-family="Noto Sans CJK JP" font-size="11" lengthAdjust="spacing" textLength="6" x="687.5227" y="216.6385">1</text><text fill="#000000" font-family="Noto Sans CJK JP" font-size="11" lengthAdjust="spacing" textLength="17" x="568.0732" y="346.0199">0..*</text></g><!--reverse link Object to Ext--><g id="link_Object_Ext"><path codeLine="77" d="M1129.0996,485.0233 C1096.3796,514.0233 1069.33,538.0039 1040.5,563.5539 " fill="none" id="Object-backto-Ext" style="stroke:#444444;stroke-width:1.0;"/><polygon fill="#444444" points="1138.08,477.0639,1130.9367,478.0501,1129.0996,485.0233,1136.2429,484.0371,1138.08,477.0639" style="stroke:#444444;stroke-width:1.0;"/><text fill="#000000" font-family="Noto Sans CJK JP" font-size="11" lengthAdjust="spacing" textLength="47" x="1099.5" y="520.5638">type &#12372;&#12392;</text><text fill="#000000" font-family="Noto Sans CJK JP" font-size="11" lengthAdjust="spacing" textLength="6" x="1124.1377" y="497.4097">1</text><text fill="#000000" font-family="Noto Sans CJK JP" font-size="11" lengthAdjust="spacing" textLength="18" x="1029.5438" y="552.6117">0..1</text></g><!--reverse link Object to Relation--><g id="link_Object_Relation"><path codeLine="78" d="M1252.4707,482.8208 C1259.9007,508.1208 1266.3,529.9039 1273.22,553.4839 " fill="none" id="Object-backto-Relation" style="stroke:#444444;stroke-width:1.0;"/><polygon fill="#444444" points="1250.78,477.0639,1249.4781,486.8263,1252.1889,481.8613,1257.1539,484.5721,1250.78,477.0639" style="stroke:#444444;stroke-width:1.0;"/><text fill="#000000" font-family="Noto Sans CJK JP" font-size="11" lengthAdjust="spacing" textLength="79" x="1263.5" y="520.5638">subject / object</text><text fill="#000000" font-family="Noto Sans CJK JP" font-size="11" lengthAdjust="spacing" textLength="6" x="1246.5228" y="497.4097">1</text><text fill="#000000" font-family="Noto Sans CJK JP" font-size="11" lengthAdjust="spacing" textLength="17" x="1252.9169" y="542.6548">0..*</text></g><!--link Researcher to Object--><g id="link_Researcher_Object"><path codeLine="80" d="M1988.19,195.9339 C1968.24,209.1139 1945.36,221.9039 1922.5,229.8039 C1886.22,242.3339 1872.74,225.1539 1836.5,237.8039 C1798.91,250.9239 1798.33,271.6639 1761.5,286.8039 C1654.73,330.6939 1534.3784,356.5797 1431.4284,372.6297 " fill="none" id="Researcher-to-Object" style="stroke:#444444;stroke-width:1.0;"/><polygon fill="#444444" points="1425.5,373.5539,1435.0087,376.1198,1430.4403,372.7837,1433.7764,368.2153,1425.5,373.5539" style="stroke:#444444;stroke-width:1.0;"/><text fill="#000000" font-family="Noto Sans CJK JP" font-size="11" lengthAdjust="spacing" textLength="115" x="1837.5" y="259.5638">&#30906;&#23450; / &#21364;&#19979; / &#12450;&#12540;&#12459;&#12452;&#12502;</text><text fill="#000000" font-family="Noto Sans CJK JP" font-size="11" lengthAdjust="spacing" textLength="96" x="1847" y="275.4917">&#65288;3 &#20998;&#38291;&#12399;&#25147;&#12379;&#12427;&#65289;</text></g><!--link Researcher to Relation--><g id="link_Researcher_Relation"><path codeLine="81" d="M2026.54,195.9839 C2010.25,225.2139 1986.43,261.5139 1957.5,286.8039 C1798.53,425.7839 1575.4288,518.248 1431.3688,568.208 " fill="none" id="Researcher-to-Relation" style="stroke:#444444;stroke-width:1.0;"/><polygon fill="#444444" points="1425.7,570.1739,1435.5138,571.0042,1430.424,568.5356,1432.8926,563.4458,1425.7,570.1739" style="stroke:#444444;stroke-width:1.0;"/><text fill="#000000" font-family="Noto Sans CJK JP" font-size="11" lengthAdjust="spacing" textLength="147" x="1915.5" y="402.0638">&#30906;&#23450; / &#21364;&#19979; / &#65291; &#12388;&#12394;&#12368; / &#12399;&#12378;&#12377;</text></g><!--link Agent to Object--><g id="link_Agent_Object"><path codeLine="82" d="M2224.59,205.8439 C2210.15,215.4039 2194.45,224.0539 2178.5,229.8039 C2130.72,247.0339 2113.62,224.8939 2064.5,237.8039 C2015.47,250.6939 2009.99,272.0339 1961.5,286.8039 C1784.66,340.6839 1581.4141,367.8465 1431.6841,381.8165 " fill="none" id="Agent-to-Object" style="stroke:#444444;stroke-width:1.0;"/><polygon fill="#444444" points="1425.71,382.3739,1435.0427,385.5205,1430.6884,381.9094,1434.2995,377.5551,1425.71,382.3739" style="stroke:#444444;stroke-width:1.0;"/><text fill="#000000" font-family="Noto Sans CJK JP" font-size="11" lengthAdjust="spacing" textLength="196" x="2065.5" y="251.5638">&#25552;&#26696;&#65288;origin=agent &#12399;&#24517;&#12378; proposed&#65289;</text><text fill="#000000" font-family="Noto Sans CJK JP" font-size="11" lengthAdjust="spacing" textLength="187" x="2070" y="267.4917">&#30740;&#31350;&#32773;&#12364;&#12381;&#12398;&#12479;&#12540;&#12531;&#12391;&#35328;&#12387;&#12383;&#12392;&#12365;&#12384;&#12369;</text><text fill="#000000" font-family="Noto Sans CJK JP" font-size="11" lengthAdjust="spacing" textLength="162" x="2082.5" y="283.4196">&#25552;&#26696;&#20013;&#12363;&#12425;&#30906;&#23450;&#12539;&#21364;&#19979;&#65288;D-120&#65289;</text></g><!--link Agent to Relation--><g id="link_Agent_Relation"><path codeLine="83" d="M2290.07,205.9539 C2286.61,231.9539 2279.79,262.1639 2266.5,286.8039 C2209.04,393.2939 2179.27,421.7739 2071.5,476.8039 C1960.96,533.2439 1624.4341,576.7584 1431.7241,597.9384 " fill="none" id="Agent-to-Relation" style="stroke:#444444;stroke-width:1.0;"/><polygon fill="#444444" points="1425.76,598.5939,1435.1431,601.5867,1430.7301,598.0477,1434.2691,593.6346,1425.76,598.5939" style="stroke:#444444;stroke-width:1.0;"/><text fill="#000000" font-family="Noto Sans CJK JP" font-size="11" lengthAdjust="spacing" textLength="154" x="2248.5" y="402.0638">&#25552;&#26696;&#65288;&#12399;&#12378;&#12377;&#12371;&#12392;&#12399;&#12391;&#12365;&#12394;&#12356;&#65289;</text></g><!--link Mcp to Object--><g id="link_Mcp_Object"><path codeLine="84" d="M1741.16,195.9639 C1722.45,208.9739 1701.02,221.6639 1679.5,229.8039 C1652.69,239.9439 1643.16,230.2939 1615.5,237.8039 C1562.28,252.2539 1552.46,265.7239 1501.5,286.8039 C1477.02,296.9339 1456.8063,305.1843 1431.2563,315.4643 " fill="none" id="Mcp-to-Object" style="stroke:#444444;stroke-width:1.0;"/><polygon fill="#444444" points="1425.69,317.7039,1435.5326,318.0554,1430.3286,315.8376,1432.5464,310.6336,1425.69,317.7039" style="stroke:#444444;stroke-width:1.0;"/><text fill="#000000" font-family="Noto Sans CJK JP" font-size="11" lengthAdjust="spacing" textLength="140" x="1616.5" y="267.5638">&#25552;&#26696; / &#24341;&#29992;&#20184;&#12365;&#12398;&#30906;&#23450;&#12539;&#21364;&#19979;</text></g><!--link System to Event--><g id="link_System_Event"><path codeLine="85" d="M1493.66,205.9539 C1477.21,215.6339 1459.38,224.2939 1441.5,229.8039 C1388.38,246.1639 1245.7,225.4639 1191.5,237.8039 C1106.71,257.1039 1091.37,280.1839 1012.5,316.8039 C1005.55,320.0339 1003.8643,320.7993 996.6943,324.1893 " fill="none" id="System-to-Event" style="stroke:#444444;stroke-width:1.0;"/><polygon fill="#444444" points="991.27,326.7539,1001.1162,326.5232,995.7902,324.6167,997.6967,319.2908,991.27,326.7539" style="stroke:#444444;stroke-width:1.0;"/><text fill="#000000" font-family="Noto Sans CJK JP" font-size="11" lengthAdjust="spacing" textLength="120" x="1192.5" y="267.5638">&#12377;&#12409;&#12390;&#12398;&#25805;&#20316;&#12434; 1 &#34892;&#12378;&#12388;</text></g><!--link System to Object--><g id="link_System_Object"><path codeLine="86" d="M1490.66,205.8439 C1474.95,215.0939 1458.17,223.6239 1441.5,229.8039 C1418.34,238.3939 1408.6,226.7639 1386.5,237.8039 C1349.25,256.4139 1319.406,282.6433 1292.576,312.0233 " fill="none" id="System-to-Object" style="stroke:#444444;stroke-width:1.0;"/><polygon fill="#444444" points="1288.53,316.4539,1297.5527,312.5054,1291.9017,312.7618,1291.6453,307.1107,1288.53,316.4539" style="stroke:#444444;stroke-width:1.0;"/><text fill="#000000" font-family="Noto Sans CJK JP" font-size="11" lengthAdjust="spacing" textLength="109" x="1387.5" y="267.5638">&#21364;&#19979;&#12363;&#12425; 3 &#20998;&#24460;&#12395;&#21066;&#38500;</text></g><!--link Object to GMN27--><g id="link_Object_GMN27"><path d="M1029.38,472.0539 C1023.37,473.7239 1017.41,475.3139 1011.5,476.8039 C777.68,535.6439 711.28,508.3139 474.5,553.8039 C448.71,558.7539 421.54,564.6539 395.08,570.7639 " fill="none" id="Object-GMN27" style="stroke:#444444;stroke-width:1.0;stroke-dasharray:7.0,7.0;"/></g><!--SRC=[ZLPRKnH757xVNz6rUJ2nH5WIJOKogU9cbOaQ0wzMKSDi0sDsfpSz0mb9MRKpAxh8Mju0HJ228ij58CIeAnUfygUaTsQM9_z2pkcUMKSsLh8lszDzklixfx_pdNE4z7Jrj1E_CERDRud2Or6u9WfhfBMvjOtKbkyVbFxqLnxvvGdXB5ShEzMzk-zsYrecDwIzsnrF727- -fCsacQwrTnoeYcjsLfJbgLfvdWsJTwMlpf6BAutsTemDvfXr6pfGpIh7RT-oXmBDtr9kffIgHRIZF-jBN1YJqyl4KufcDtmIzU4C-FjFOOhU-Y8OHdC57cdXsOq6uQaUuIQDanq3t9gMUG2onZwAC0IpcO42K1y3cU_BPyGULV2XhENXRFXlTe0C__vClWed3L_jYAScmdRi3CqT1kCgZjJmOihmjc7FVxT6zMzES0Zt8d6G2Ii7mqpft4jIz9qG1lEsAUPQP_NifGappERaLxDj4Zdjz-HRoyaOyRMa9PcFnlc81dGCXQDhN0sRAOx6JSf9oTZytf60rz_In3IeUa_3ePc6SR99wVb3rSOJrCUpduXVp3RpZdx-SF9ox63vJAYxZL-fIILIWmPQKfeDcUFaYpDzbDkgIdTu7g69XA9703G1i535Oya8EZgxkXgaUWKpcGmFncilApbnowQd_PGYseSAC0_InBD8k-_vGv2QYjR461uh-3njhVnG1Hsl1j_LIiJAkhI99ZSENZuM3XbzHxu1hhD-DUyVXO-1o6NtqDeFmDMrTq7S3gi0GwO7mO_Ei-UKJZQ1u578GHW-a5-tYjDm-NLdIV-x7vrPwEs-Wm_juj-1GVAyDa2C0Gc4AXxnxzvoryene164vlU_fXm7gZFQcKTe0UJZuJpHhWbPHk3sXaYWnG2dESwBoY0v_HS2C-xLHBE_P2WxftQwhfmyn2mXkiR8hWPp6pNblD8_TsfO19oe0J83kQB7oA0EEe6F2zWu8YXTzIoQLR1KECG2SjHBjFG8XY7nRdQygvS48KfuIu8Tn5a17EeagyjbI614AkpxzsS5kvrvKk8R8DyJhpYLUzD2S6DNp-OMPIOBiSO5bUYAE_mNjBxmrd3fl2kmBxkZjCdJdSqiW_So75sYUgsfHoveBv2JqpCqhUl8EEOtPVJx26uG6sKhgoW7uMyeXK4TctJdmF7raWA02mYXguE6ArvOyjg5sn7JKir434yr5qL1GX2HRXbuMwAGX7miVuOlE_xO-ZiqHoj0rBi9AdcLkBTT8EnCgWQk6OpdMM01QpVedn4YMEmZZeON06MNecmCsuC6YPf8- -p1NPfI7-vRjcQFMp1EfoPOnPDmwhEp063P-MOKmGcXxZR6A5fXL7A9eImdwL7yTza-2R5sfEvsildS3jCwHpUYGCokQDQkIubzuQYBBWH2Jo9ePPnR6c8empxAX0Oc0Inus4zi29L2Sk3Yb-EqxIXQnBFINonA1Z_rrb5QcSJaXZ10f4NWAYJM19UGiOL0Vv7aLPtxdjRlmD7QWlB4bptBz6xmZgrBNpPsOgt-KOKRWltDSPEk2ymUTnj_F1d__Ad__3lFVLdt0XubchMCATPU3NS3taum11pdsP79lLWzrcZsNwMGRk8vh3TX8BJ65NCs1bHUAuOIR6uXY6LXJR2hSlWjX55sJwTKqrH8fmufGBx3McMzj7hn0phK-046y4fQJbWP2XCQMYIrNFHyE_yKdGnL2vm84rjpSZqNRAO2Mv5QWPyM55CKz4wz11I_i6jB7GAGFZGiNFgAtIDCyLYO86D3dzu5iXHf1l9L98SRMeYoPRZnuycmtpzs6h4nu-jo-1-R344c0Wb8RuAGsHJcrG8eXWPjplL206ChM5b4JrN8X6hmarDtqJYqnPM431KEWq3uK9tk2lSDKcLwOiOVYdT1zDtiPagxWXdLgR3-E5JOmWQptstEq6YdBw5zqJ9bb2L-GDOgjB1pKhClfRgHUfrjfxDijJNkmyK2-SX9A9mzz47OBbJbkNmYN0UoPOGf6XUEBSlch5IFI7SyKELLELwgyprz_1Y_jK1nZJZhhm1FilodjLGax6k_ujp61l9Qf0FQRzn24CYhCIuL-Lc6v7tl1RE4bPZrQkwTw16IRK258lnJVKBengCZiRAy5fOXXCevA3gjisoX0r4JA-B9tRQ-Z0FAyxrb_xOXFJH1MKEohUzzQNWmPLWxf7dxCdvpSZtudbeSR3bFu7zUXuphFqC2LwKWiajz5SUvIsEW_xX7NM9_llgdV-gIDZWO-BNhN1FR14V6Muyt211CxLq5VaR8OnUMQ6B0dKFwUAwo2J05OjOM0poZX9Ex0Y2UrErLmlgHdzZ8bOeOBLStNyOJCs45r0pBOlcuO3NnIFgJ26UI8_YeZ-z3cFic4hRNl4frgLhgzx4LEXNL4JXy1Jnvvuf3lXRsy9rLC658-irDmTT0NW5uRIvXl64Me8J3OKuZlKV]--></g></svg>