<?xml version="1.0" encoding="us-ascii" standalone="no"?><svg xmlns="http://www.w3.org/2000/svg" xmlns:xlink="http://www.w3.org/1999/xlink" contentStyleType="text/css" height="1619px" preserveAspectRatio="none" style="width:3104px;height:1619px;background:#FFFFFF;" version="1.1" viewBox="0 0 3104 1619" width="3104px" zoomAndPan="magnify"><defs/><g><text fill="#000000" font-family="Noto Sans CJK JP" font-size="14" font-weight="bold" lengthAdjust="spacing" textLength="343" x="1373.75" y="26.2399">alpha &#12391;&#12391;&#12365;&#12427;&#12371;&#12392;&#65288;&#12450;&#12463;&#12479;&#12540; / &#12518;&#12540;&#12473;&#12465;&#12540;&#12473; / &#23550;&#35937;&#65289;</text><!--cluster G4--><g id="cluster_G4"><path d="M1823.5,1197.8039 L1976.5,1197.8039 A4.5,4.5 0 0 1 1979.5,1200.8039 L1986.5,1224.0758 L3094.5,1224.0758 A3,3 0 0 1 3097.5,1227.0758 L3097.5,1604.8039 A3,3 0 0 1 3094.5,1607.8039 L1823.5,1607.8039 A3,3 0 0 1 1820.5,1604.8039 L1820.5,1200.8039 A3,3 0 0 1 1823.5,1197.8039 " fill="#FAFAFA" style="stroke:#444444;stroke-width:1.5;"/><line style="stroke:#444444;stroke-width:1.5;" x1="1820.5" x2="1986.5" y1="1224.0758" y2="1224.0758"/><text fill="#000000" font-family="Noto Sans CJK JP" font-size="14" font-weight="bold" lengthAdjust="spacing" textLength="153" x="1824.5" y="1216.0438">4. &#22806;&#12363;&#12425;&#20351;&#12358; / &#12420;&#12426;&#30452;&#12377;</text></g><!--cluster G3--><g id="cluster_G3"><path d="M1112.5,850.8039 L1226.5,850.8039 A4.5,4.5 0 0 1 1229.5,853.8039 L1236.5,877.0758 L2665.5,877.0758 A3,3 0 0 1 2668.5,880.0758 L2668.5,1154.8039 A3,3 0 0 1 2665.5,1157.8039 L1112.5,1157.8039 A3,3 0 0 1 1109.5,1154.8039 L1109.5,853.8039 A3,3 0 0 1 1112.5,850.8039 " fill="#FAFAFA" style="stroke:#444444;stroke-width:1.5;"/><line style="stroke:#444444;stroke-width:1.5;" x1="1109.5" x2="1236.5" y1="877.0758" y2="877.0758"/><text fill="#000000" font-family="Noto Sans CJK JP" font-size="14" font-weight="bold" lengthAdjust="spacing" textLength="114" x="1113.5" y="869.0438">3. &#12487;&#12540;&#12479;&#12434;&#12388;&#12394;&#12368;</text></g><!--cluster G2--><g id="cluster_G2"><path d="M407.5,479.8039 L504.5,479.8039 A4.5,4.5 0 0 1 507.5,482.8039 L514.5,506.0758 L2059,506.0758 A3,3 0 0 1 2062,509.0758 L2062,807.8039 A3,3 0 0 1 2059,810.8039 L407.5,810.8039 A3,3 0 0 1 404.5,807.8039 L404.5,482.8039 A3,3 0 0 1 407.5,479.8039 " fill="#FAFAFA" style="stroke:#444444;stroke-width:1.5;"/><line style="stroke:#444444;stroke-width:1.5;" x1="404.5" x2="514.5" y1="506.0758" y2="506.0758"/><text fill="#000000" font-family="Noto Sans CJK JP" font-size="14" font-weight="bold" lengthAdjust="spacing" textLength="97" x="408.5" y="498.0438">2. &#27770;&#12417;&#12427; / &#30452;&#12377;</text></g><!--cluster G1--><g id="cluster_G1"><path d="M9,47.8039 L53,47.8039 A4.5,4.5 0 0 1 56,50.8039 L63,74.0758 L1314,74.0758 A3,3 0 0 1 1317,77.0758 L1317,436.8039 A3,3 0 0 1 1314,439.8039 L9,439.8039 A3,3 0 0 1 6,436.8039 L6,50.8039 A3,3 0 0 1 9,47.8039 " fill="#FAFAFA" style="stroke:#444444;stroke-width:1.5;"/><line style="stroke:#444444;stroke-width:1.5;" x1="6" x2="63" y1="74.0758" y2="74.0758"/><text fill="#000000" font-family="Noto Sans CJK JP" font-size="14" font-weight="bold" lengthAdjust="spacing" textLength="44" x="10" y="66.0438">1. &#35441;&#12377;</text></g><!--entity R4--><g id="elem_R4"><ellipse cx="1886.5" cy="1355.3039" fill="#FFFFFF" rx="8" ry="8" style="stroke:#444444;stroke-width:0.5;"/><path d="M1886.5,1363.3039 L1886.5,1390.3039 M1873.5,1371.3039 L1899.5,1371.3039 M1886.5,1390.3039 L1873.5,1405.3039 M1886.5,1390.3039 L1899.5,1405.3039 " fill="none" style="stroke:#444444;stroke-width:0.5;"/><text fill="#000000" font-family="Noto Sans CJK JP" font-size="14" lengthAdjust="spacing" textLength="42" x="1865.5" y="1423.0438">&#30740;&#31350;&#32773;</text></g><!--entity C4--><g id="elem_C4"><ellipse cx="1886.5" cy="1471.8039" fill="#FFFFFF" rx="8" ry="8" style="stroke:#444444;stroke-width:0.5;"/><path d="M1886.5,1479.8039 L1886.5,1506.8039 M1873.5,1487.8039 L1899.5,1487.8039 M1886.5,1506.8039 L1873.5,1521.8039 M1886.5,1506.8039 L1899.5,1521.8039 " fill="none" style="stroke:#444444;stroke-width:0.5;"/><text fill="#000000" font-family="Noto Sans CJK JP" font-size="14" lengthAdjust="spacing" textLength="84" x="1844.5" y="1539.5438">Claude Code</text><text fill="#000000" font-family="Noto Sans CJK JP" font-size="14" lengthAdjust="spacing" textLength="57" x="1844.5" y="1559.8157">&#65288;MCP&#65289;</text></g><g id="elem_UC8"><ellipse cx="2457.2325" cy="1514.6415" fill="#FFFFFF" rx="205.2325" ry="60.3376" style="stroke:#444444;stroke-width:0.5;"/><text fill="#000000" font-family="Noto Sans CJK JP" font-size="14" lengthAdjust="spacing" textLength="220" x="2347.2325" y="1488.3376">UC-8 Claude Code &#20596;&#12363;&#12425;&#25805;&#20316;&#12377;&#12427;</text><text fill="#000000" font-family="Noto Sans CJK JP" font-size="14" lengthAdjust="spacing" textLength="177" x="2368.7325" y="1508.6095">&#35373;&#23450; &#8594; Claude Code &#12395;&#36861;&#21152;</text><text fill="#000000" font-family="Noto Sans CJK JP" font-size="14" lengthAdjust="spacing" textLength="252" x="2331.2325" y="1528.8814">get_research_context / create_object /</text><text fill="#000000" font-family="Noto Sans CJK JP" font-size="14" lengthAdjust="spacing" textLength="274" x="2320.2325" y="1549.1534">set_object_status&#65288;&#30330;&#35328;&#12398;&#24341;&#29992;&#12364;&#24517;&#38920;&#65289;F6</text></g><g id="elem_UC9"><ellipse cx="2456.8011" cy="1386.5641" fill="#FFFFFF" rx="149.3011" ry="32.2602" style="stroke:#444444;stroke-width:0.5;"/><text fill="#000000" font-family="Noto Sans CJK JP" font-size="14" lengthAdjust="spacing" textLength="91" x="2411.3011" y="1380.5321">UC-9 &#12420;&#12426;&#30452;&#12377;</text><text fill="#000000" font-family="Noto Sans CJK JP" font-size="14" lengthAdjust="spacing" textLength="199" x="2357.3011" y="1400.804">&#35373;&#23450; &#8594; &#12377;&#12409;&#12390;&#28040;&#12377;&#65288;2 &#27573;&#30906;&#35469;&#65289;</text></g><g id="elem_UCX"><ellipse cx="2457.0177" cy="1281.8074" fill="#FFFFFF" rx="173.0177" ry="37.0035" style="stroke:#444444;stroke-width:0.5;"/><text fill="#000000" font-family="Noto Sans CJK JP" font-size="14" lengthAdjust="spacing" textLength="56" x="2429.0177" y="1275.7754">&#26360;&#12365;&#20986;&#12377;</text><text fill="#000000" font-family="Noto Sans CJK JP" font-size="14" lengthAdjust="spacing" textLength="261" x="2326.5177" y="1296.0474">&#35373;&#23450; &#8594; &#12371;&#12398;&#30740;&#31350;&#12434;&#26360;&#12365;&#20986;&#12377;&#65288;JSON&#65289;F11</text></g><!--entity O_ALL4--><g id="elem_O_ALL4"><rect fill="#FEF9E7" height="46.5438" rx="3" ry="3" style="stroke:#B7950B;stroke-width:0.5;" width="260" x="2813.5" y="1491.3039"/><text fill="#000000" font-family="Noto Sans CJK JP" font-size="14" lengthAdjust="spacing" textLength="240" x="2823.5" y="1510.5438">&#30740;&#31350;&#12458;&#12502;&#12472;&#12455;&#12463;&#12488; &#183; &#12388;&#12394;&#12364;&#12426; &#183; events</text><text fill="#000000" font-family="Noto Sans CJK JP" font-size="14" lengthAdjust="spacing" textLength="214" x="2823.5" y="1530.8157">&#65288;MCP &#12398;&#35501;&#12415;&#21462;&#12426;&#12399; mcp_read&#65289;</text></g><!--entity O_REC4--><g id="elem_O_REC4"><rect fill="#FEF9E7" height="46.5438" rx="3" ry="3" style="stroke:#B7950B;stroke-width:0.5;" width="255" x="2816" y="1363.3039"/><text fill="#000000" font-family="Noto Sans CJK JP" font-size="14" lengthAdjust="spacing" textLength="235" x="2826" y="1382.5438">&#30740;&#31350; &#183; &#20250;&#35441; &#183; Claude &#12398;&#12475;&#12483;&#12471;&#12519;&#12531; ID</text><text fill="#000000" font-family="Noto Sans CJK JP" font-size="14" lengthAdjust="spacing" textLength="196" x="2826" y="1402.8157">&#65288;&#30740;&#31350;&#12501;&#12457;&#12523;&#12480;&#12395;&#12399;&#35302;&#12428;&#12394;&#12356;&#65289;</text></g><!--entity O_EXP4--><g id="elem_O_EXP4"><rect fill="#FEF9E7" height="26.2719" rx="3" ry="3" style="stroke:#B7950B;stroke-width:0.5;" width="206" x="2840.5" y="1268.8039"/><text fill="#000000" font-family="Noto Sans CJK JP" font-size="14" lengthAdjust="spacing" textLength="186" x="2850.5" y="1288.0438">JSON&#65288;1 &#30740;&#31350;&#12398;&#20840;&#12486;&#12540;&#12502;&#12523;&#65289;</text></g><!--entity R3--><g id="elem_R3"><ellipse cx="1161.5" cy="906.3039" fill="#FFFFFF" rx="8" ry="8" style="stroke:#444444;stroke-width:0.5;"/><path d="M1161.5,914.3039 L1161.5,941.3039 M1148.5,922.3039 L1174.5,922.3039 M1161.5,941.3039 L1148.5,956.3039 M1161.5,941.3039 L1174.5,956.3039 " fill="none" style="stroke:#444444;stroke-width:0.5;"/><text fill="#000000" font-family="Noto Sans CJK JP" font-size="14" lengthAdjust="spacing" textLength="42" x="1140.5" y="974.0438">&#30740;&#31350;&#32773;</text></g><!--entity A3--><g id="elem_A3"><ellipse cx="1161.5" cy="1021.8039" fill="#FFFFFF" rx="8" ry="8" style="stroke:#444444;stroke-width:0.5;"/><path d="M1161.5,1029.8039 L1161.5,1056.8039 M1148.5,1037.8039 L1174.5,1037.8039 M1161.5,1056.8039 L1148.5,1071.8039 M1161.5,1056.8039 L1174.5,1071.8039 " fill="none" style="stroke:#444444;stroke-width:0.5;"/><text fill="#000000" font-family="Noto Sans CJK JP" font-size="14" lengthAdjust="spacing" textLength="13" x="1133.5" y="1089.5438">AI</text><text fill="#000000" font-family="Noto Sans CJK JP" font-size="14" lengthAdjust="spacing" textLength="56" x="1133.5" y="1109.8157">&#65288;&#20250;&#35441;&#65289;</text></g><g id="elem_UC5"><ellipse cx="1886.3539" cy="1057.8071" fill="#FFFFFF" rx="207.3539" ry="46.0032" style="stroke:#444444;stroke-width:0.5;"/><text fill="#000000" font-family="Noto Sans CJK JP" font-size="14" lengthAdjust="spacing" textLength="231" x="1770.8539" y="1041.6392">UC-5 &#25163;&#20803;&#12398;&#12501;&#12449;&#12452;&#12523;&#12434;&#12487;&#12540;&#12479;&#12395;&#12377;&#12427;</text><text fill="#000000" font-family="Noto Sans CJK JP" font-size="14" lengthAdjust="spacing" textLength="275" x="1748.8539" y="1061.9111">&#12487;&#12540;&#12479;&#12539;&#12501;&#12449;&#12452;&#12523; &#8594; &#30740;&#31350;&#12501;&#12457;&#12523;&#12480;&#12434;&#36984;&#12406; &#8594;</text><text fill="#000000" font-family="Noto Sans CJK JP" font-size="14" lengthAdjust="spacing" textLength="277" x="1747.8539" y="1082.183">&#12487;&#12540;&#12479;&#12392;&#12375;&#12390;&#30331;&#37682; &#8594; &#12393;&#12398;&#28204;&#23450;&#12398;&#12487;&#12540;&#12479;&#12363; F4</text></g><g id="elem_UC7"><ellipse cx="1886.5786" cy="937.7196" fill="#FFFFFF" rx="152.5786" ry="32.9157" style="stroke:#444444;stroke-width:0.5;"/><text fill="#000000" font-family="Noto Sans CJK JP" font-size="14" lengthAdjust="spacing" textLength="175" x="1799.0786" y="931.6876">UC-7 &#28204;&#23450;&#12434;&#23455;&#26045;&#28168;&#12415;&#12395;&#12377;&#12427;</text><text fill="#000000" font-family="Noto Sans CJK JP" font-size="14" lengthAdjust="spacing" textLength="208" x="1782.5786" y="951.9595">[&#23455;&#26045;&#12375;&#12383;]&#65288;status &#12392;&#12399;&#21029;&#12398;&#36600;&#65289;</text></g><!--entity O_FS3--><g id="elem_O_FS3"><rect fill="#FEF9E7" height="46.5438" rx="3" ry="3" style="stroke:#B7950B;stroke-width:0.5;" width="240" x="2337" y="1067.3039"/><text fill="#000000" font-family="Noto Sans CJK JP" font-size="14" lengthAdjust="spacing" textLength="84" x="2347" y="1086.5438">&#30740;&#31350;&#12501;&#12457;&#12523;&#12480;</text><text fill="#000000" font-family="Noto Sans CJK JP" font-size="14" lengthAdjust="spacing" textLength="220" x="2347" y="1106.8157">&#65288;&#35501;&#12416;&#12384;&#12369;&#12290;projects.root_path&#65289;</text></g><!--entity O_ASSET3--><g id="elem_O_ASSET3"><rect fill="#FEF9E7" height="46.5438" rx="3" ry="3" style="stroke:#B7950B;stroke-width:0.5;" width="375" x="2269.5" y="985.3039"/><text fill="#000000" font-family="Noto Sans CJK JP" font-size="14" lengthAdjust="spacing" textLength="105" x="2279.5" y="1004.5438">&#12487;&#12540;&#12479;&#65288;asset&#65289;</text><text fill="#000000" font-family="Noto Sans CJK JP" font-size="14" lengthAdjust="spacing" textLength="355" x="2279.5" y="1024.8157">&#30456;&#23550;&#12497;&#12473;&#65288;/ &#21306;&#20999;&#12426;&#12289;&#30740;&#31350;&#20869;&#12391;&#19968;&#24847;&#65289;&#183; &#12469;&#12452;&#12474; &#183; &#26356;&#26032;&#26085;&#26178;</text></g><!--entity O_PERF3--><g id="elem_O_PERF3"><rect fill="#FEF9E7" height="46.5438" rx="3" ry="3" style="stroke:#B7950B;stroke-width:0.5;" width="313" x="2300.5" y="903.3039"/><text fill="#000000" font-family="Noto Sans CJK JP" font-size="14" lengthAdjust="spacing" textLength="293" x="2310.5" y="922.5438">&#28204;&#23450;&#12398;&#23455;&#26045;&#65288;measurements.performed_at&#65289;</text><text fill="#000000" font-family="Noto Sans CJK JP" font-size="14" lengthAdjust="spacing" textLength="182" x="2310.5" y="942.8157">&#26085;&#20184;&#12399;&#12487;&#12540;&#12479;&#12398;&#26356;&#26032;&#26085;&#26178;&#12363;&#12425;</text></g><!--entity R2--><g id="elem_R2"><ellipse cx="456.5" cy="550.3039" fill="#FFFFFF" rx="8" ry="8" style="stroke:#444444;stroke-width:0.5;"/><path d="M456.5,558.3039 L456.5,585.3039 M443.5,566.3039 L469.5,566.3039 M456.5,585.3039 L443.5,600.3039 M456.5,585.3039 L469.5,600.3039 " fill="none" style="stroke:#444444;stroke-width:0.5;"/><text fill="#000000" font-family="Noto Sans CJK JP" font-size="14" lengthAdjust="spacing" textLength="42" x="435.5" y="618.0438">&#30740;&#31350;&#32773;</text></g><!--entity A2--><g id="elem_A2"><ellipse cx="456.5" cy="672.8039" fill="#FFFFFF" rx="8" ry="8" style="stroke:#444444;stroke-width:0.5;"/><path d="M456.5,680.8039 L456.5,707.8039 M443.5,688.8039 L469.5,688.8039 M456.5,707.8039 L443.5,722.8039 M456.5,707.8039 L469.5,722.8039 " fill="none" style="stroke:#444444;stroke-width:0.5;"/><text fill="#000000" font-family="Noto Sans CJK JP" font-size="14" lengthAdjust="spacing" textLength="13" x="428.5" y="740.5438">AI</text><text fill="#000000" font-family="Noto Sans CJK JP" font-size="14" lengthAdjust="spacing" textLength="56" x="428.5" y="760.8157">&#65288;&#20250;&#35441;&#65289;</text></g><g id="elem_UC4"><ellipse cx="1161.4335" cy="708.8071" fill="#FFFFFF" rx="185.4335" ry="46.0032" style="stroke:#444444;stroke-width:0.5;"/><text fill="#000000" font-family="Noto Sans CJK JP" font-size="14" lengthAdjust="spacing" textLength="119" x="1101.9335" y="692.6392">UC-4 &#25552;&#26696;&#12434;&#27770;&#12417;&#12427;</text><text fill="#000000" font-family="Noto Sans CJK JP" font-size="14" lengthAdjust="spacing" textLength="246" x="1038.4335" y="712.9111">&#30906;&#23450; / &#21364;&#19979;&#65288;3 &#20998;&#38291;&#12399;&#36890;&#30693;&#12363;&#12425;&#25147;&#12379;&#12427;&#65289;</text><text fill="#000000" font-family="Noto Sans CJK JP" font-size="14" lengthAdjust="spacing" textLength="245" x="1038.9335" y="733.183">&#12450;&#12540;&#12459;&#12452;&#12502;&#65288;&#25552;&#26696;&#20013;&#12539;&#30906;&#23450;&#12363;&#12425;&#65289;F5 F6</text></g><g id="elem_UC6"><ellipse cx="1161.5341" cy="575.8071" fill="#FFFFFF" rx="175.5341" ry="46.0032" style="stroke:#444444;stroke-width:0.5;"/><text fill="#000000" font-family="Noto Sans CJK JP" font-size="14" lengthAdjust="spacing" textLength="133" x="1095.0341" y="559.6392">UC-6 &#12388;&#12394;&#12364;&#12426;&#12434;&#30452;&#12377;</text><text fill="#000000" font-family="Noto Sans CJK JP" font-size="14" lengthAdjust="spacing" textLength="232" x="1045.5341" y="579.9111">&#65291; &#12388;&#12394;&#12368;&#65288;&#22411;&#12398;&#32068;&#12391;&#36848;&#35486;&#12364;&#27770;&#12414;&#12427;&#65289;/</text><text fill="#000000" font-family="Noto Sans CJK JP" font-size="14" lengthAdjust="spacing" textLength="140" x="1091.5341" y="600.183">&#12399;&#12378;&#12377;&#65288;&#30740;&#31350;&#32773;&#12384;&#12369;&#65289;</text></g><!--entity O_OBJ2--><g id="elem_O_OBJ2"><rect fill="#FEF9E7" height="66.8157" rx="3" ry="3" style="stroke:#B7950B;stroke-width:0.5;" width="248" x="1762.5" y="711.3039"/><text fill="#000000" font-family="Noto Sans CJK JP" font-size="14" lengthAdjust="spacing" textLength="112" x="1772.5" y="730.5438">&#30740;&#31350;&#12458;&#12502;&#12472;&#12455;&#12463;&#12488;</text><text fill="#000000" font-family="Noto Sans CJK JP" font-size="14" lengthAdjust="spacing" textLength="207" x="1772.5" y="750.8157">status: proposed &#8594; confirmed /</text><text fill="#000000" font-family="Noto Sans CJK JP" font-size="14" lengthAdjust="spacing" textLength="228" x="1772.5" y="771.0876">rejected&#65288;3 &#20998;&#24460;&#12395;&#21066;&#38500;&#65289;/ archived</text></g><!--entity O_REL2--><g id="elem_O_REL2"><rect fill="#FEF9E7" height="66.8157" rx="3" ry="3" style="stroke:#B7950B;stroke-width:0.5;" width="303" x="1735" y="527.3039"/><text fill="#000000" font-family="Noto Sans CJK JP" font-size="14" lengthAdjust="spacing" textLength="135" x="1745" y="546.5438">&#12388;&#12394;&#12364;&#12426;&#65288;relation&#65289;</text><text fill="#000000" font-family="Noto Sans CJK JP" font-size="14" lengthAdjust="spacing" textLength="283" x="1745" y="566.8157">addresses / predicts / tested_by / produces</text><text fill="#000000" font-family="Noto Sans CJK JP" font-size="14" lengthAdjust="spacing" textLength="160" x="1745" y="587.0876">+ references / related_to</text></g><!--entity O_EV2--><g id="elem_O_EV2"><rect fill="#FEF9E7" height="46.5438" rx="3" ry="3" style="stroke:#B7950B;stroke-width:0.5;" width="147" x="1813" y="629.3039"/><text fill="#000000" font-family="Noto Sans CJK JP" font-size="14" lengthAdjust="spacing" textLength="44" x="1823" y="648.5438">events</text><text fill="#000000" font-family="Noto Sans CJK JP" font-size="14" lengthAdjust="spacing" textLength="127" x="1823" y="668.8157">actor &#183; &#26085;&#26178; &#183; detail</text></g><!--entity R1--><g id="elem_R1"><ellipse cx="78.5" cy="155.3039" fill="#FFFFFF" rx="8" ry="8" style="stroke:#444444;stroke-width:0.5;"/><path d="M78.5,163.3039 L78.5,190.3039 M65.5,171.3039 L91.5,171.3039 M78.5,190.3039 L65.5,205.3039 M78.5,190.3039 L91.5,205.3039 " fill="none" style="stroke:#444444;stroke-width:0.5;"/><text fill="#000000" font-family="Noto Sans CJK JP" font-size="14" lengthAdjust="spacing" textLength="42" x="57.5" y="223.0438">&#30740;&#31350;&#32773;</text></g><!--entity A1--><g id="elem_A1"><ellipse cx="78.5" cy="281.8039" fill="#FFFFFF" rx="8" ry="8" style="stroke:#444444;stroke-width:0.5;"/><path d="M78.5,289.8039 L78.5,316.8039 M65.5,297.8039 L91.5,297.8039 M78.5,316.8039 L65.5,331.8039 M78.5,316.8039 L91.5,331.8039 " fill="none" style="stroke:#444444;stroke-width:0.5;"/><text fill="#000000" font-family="Noto Sans CJK JP" font-size="14" lengthAdjust="spacing" textLength="13" x="30" y="349.5438">AI</text><text fill="#000000" font-family="Noto Sans CJK JP" font-size="14" lengthAdjust="spacing" textLength="97" x="30" y="369.8157">&#65288;claude CLI&#65289;</text></g><g id="elem_UC1"><ellipse cx="456.697" cy="140.8071" fill="#FFFFFF" rx="201.697" ry="46.0032" style="stroke:#444444;stroke-width:0.5;"/><text fill="#000000" font-family="Noto Sans CJK JP" font-size="14" lengthAdjust="spacing" textLength="119" x="397.197" y="124.6392">UC-1 &#30740;&#31350;&#12434;&#22987;&#12417;&#12427;</text><text fill="#000000" font-family="Noto Sans CJK JP" font-size="14" lengthAdjust="spacing" textLength="269" x="322.197" y="144.9111">&#12300;&#12356;&#12414;&#12289;&#20309;&#12434;&#35519;&#12409;&#12390;&#12356;&#12414;&#12377;&#12363;&#12301;&#8594; &#12399;&#12376;&#12417;&#12427;</text><text fill="#000000" font-family="Noto Sans CJK JP" font-size="14" lengthAdjust="spacing" textLength="126" x="393.697" y="165.183">&#65288;&#12501;&#12457;&#12523;&#12480;&#12399;&#24460;&#12391;&#65289;</text></g><g id="elem_UC2"><ellipse cx="456.3246" cy="260.7688" fill="#FFFFFF" rx="180.3246" ry="38.4649" style="stroke:#444444;stroke-width:0.5;"/><text fill="#000000" font-family="Noto Sans CJK JP" font-size="14" lengthAdjust="spacing" textLength="259" x="326.8246" y="254.7368">UC-2 &#20250;&#35441;&#12375;&#12390;&#30740;&#31350;&#12458;&#12502;&#12472;&#12455;&#12463;&#12488;&#12364;&#29694;&#12428;&#12427;</text><text fill="#000000" font-family="Noto Sans CJK JP" font-size="14" lengthAdjust="spacing" textLength="279" x="316.8246" y="275.0087">{ reply, operations } &#12434; Core &#12364;&#26908;&#35388; F1 F2 F3</text></g><g id="elem_UC3"><ellipse cx="456.7207" cy="370.748" fill="#FFFFFF" rx="170.2207" ry="36.4441" style="stroke:#444444;stroke-width:0.5;"/><text fill="#000000" font-family="Noto Sans CJK JP" font-size="14" lengthAdjust="spacing" textLength="163" x="375.2207" y="364.7161">UC-3 AI &#12364;&#12501;&#12449;&#12452;&#12523;&#12434;&#35501;&#12416;</text><text fill="#000000" font-family="Noto Sans CJK JP" font-size="14" lengthAdjust="spacing" textLength="254" x="329.7207" y="384.988">read_files &#8594; &#20808;&#38957; 4KB&#65288;2 &#24448;&#24489;&#12414;&#12391;&#65289;F9</text></g><!--entity O_PRJ1--><g id="elem_O_PRJ1"><rect fill="#FEF9E7" height="46.5438" rx="3" ry="3" style="stroke:#B7950B;stroke-width:0.5;" width="146" x="1088.5" y="114.3039"/><text fill="#000000" font-family="Noto Sans CJK JP" font-size="14" lengthAdjust="spacing" textLength="102" x="1098.5" y="133.5438">&#30740;&#31350;&#65288;project&#65289;</text><text fill="#000000" font-family="Noto Sans CJK JP" font-size="14" lengthAdjust="spacing" textLength="126" x="1098.5" y="153.8157">&#21517;&#21069; &#183; &#30740;&#31350;&#12501;&#12457;&#12523;&#12480;</text></g><!--entity O_MSG1--><g id="elem_O_MSG1"><rect fill="#FEF9E7" height="26.2719" rx="3" ry="3" style="stroke:#B7950B;stroke-width:0.5;" width="142" x="1090.5" y="298.8039"/><text fill="#000000" font-family="Noto Sans CJK JP" font-size="14" lengthAdjust="spacing" textLength="122" x="1100.5" y="318.0438">&#20250;&#35441;&#65288;messages&#65289;</text></g><!--entity O_OBJ1--><g id="elem_O_OBJ1"><rect fill="#FEF9E7" height="66.8157" rx="3" ry="3" style="stroke:#B7950B;stroke-width:0.5;" width="263" x="1030" y="196.3039"/><text fill="#000000" font-family="Noto Sans CJK JP" font-size="14" lengthAdjust="spacing" textLength="182" x="1040" y="215.5438">&#30740;&#31350;&#12458;&#12502;&#12472;&#12455;&#12463;&#12488;&#65288;&#25552;&#26696;&#20013;&#65289;</text><text fill="#000000" font-family="Noto Sans CJK JP" font-size="14" lengthAdjust="spacing" textLength="243" x="1040" y="235.8157">&#20104;&#28204;&#12399;&#21028;&#23450;&#24335; criterion &#12392;&#35352;&#21495;&#34920;&#12364;&#24517;&#38920;</text><text fill="#000000" font-family="Noto Sans CJK JP" font-size="14" lengthAdjust="spacing" textLength="92" x="1040" y="256.0876">&#35036;&#36275;&#12399; note &#21015;</text></g><!--entity O_READ1--><g id="elem_O_READ1"><rect fill="#FEF9E7" height="46.5438" rx="3" ry="3" style="stroke:#B7950B;stroke-width:0.5;" width="151" x="1086" y="360.3039"/><text fill="#000000" font-family="Noto Sans CJK JP" font-size="14" lengthAdjust="spacing" textLength="131" x="1096" y="379.5438">file_read&#65288;events&#65289;</text><text fill="#000000" font-family="Noto Sans CJK JP" font-size="14" lengthAdjust="spacing" textLength="112" x="1096" y="399.8157">&#12300;&#35501;&#12415;&#36796;&#12415;&#28168;&#12415;&#12301;</text></g><!--link R4 to UC8--><g id="link_R4_UC8"><path d="M1907.73,1391.3639 C1968.7,1405.0839 2149.1365,1445.7162 2287.7365,1476.9162 " fill="none" id="R4-to-UC8" style="stroke:#444444;stroke-width:1.0;"/><polygon fill="#444444" points="2293.59,1478.2339,2285.6882,1472.355,2288.7121,1477.1358,2283.9313,1480.1597,2293.59,1478.2339" style="stroke:#444444;stroke-width:1.0;"/><text fill="#000000" font-family="Noto Sans CJK JP" font-size="13" lengthAdjust="spacing" textLength="65" x="2140.5" y="1439.8839">&#35373;&#23450;&#12391;&#36861;&#21152;</text></g><!--link C4 to UC8--><g id="link_C4_UC8"><path d="M1928.84,1513.8739 C1996.23,1513.9939 2128.08,1514.2232 2245.92,1514.4332 " fill="none" id="C4-to-UC8" style="stroke:#444444;stroke-width:1.0;"/><polygon fill="#444444" points="2251.92,1514.4439,2242.9271,1510.4279,2246.92,1514.435,2242.9129,1518.4278,2251.92,1514.4439" style="stroke:#444444;stroke-width:1.0;"/><text fill="#000000" font-family="Noto Sans CJK JP" font-size="13" lengthAdjust="spacing" textLength="27" x="2159.5" y="1510.8839">MCP</text></g><!--link R4 to UC9--><g id="link_R4_UC9"><path d="M1907.73,1386.8039 C1970.73,1386.8039 2161.51,1386.8039 2301.26,1386.8039 " fill="none" id="R4-to-UC9" style="stroke:#444444;stroke-width:1.0;"/><polygon fill="#444444" points="2307.26,1386.8039,2298.26,1382.8039,2302.26,1386.8039,2298.26,1390.8039,2307.26,1386.8039" style="stroke:#444444;stroke-width:1.0;"/></g><!--link R4 to UCX--><g id="link_R4_UCX"><path d="M1907.73,1383.0639 C1973.5,1370.9239 2179.1698,1332.9337 2319.4398,1307.0237 " fill="none" id="R4-to-UCX" style="stroke:#444444;stroke-width:1.0;"/><polygon fill="#444444" points="2325.34,1305.9339,2315.7631,1303.6352,2320.4232,1306.8421,2317.2163,1311.5021,2325.34,1305.9339" style="stroke:#444444;stroke-width:1.0;"/></g><!--link UC8 to O_ALL4--><g id="link_UC8_O_ALL4"><path d="M2662.07,1514.8039 C2713.27,1514.8039 2760.81,1514.8039 2807.22,1514.8039 " fill="none" id="UC8-to-O_ALL4" style="stroke:#444444;stroke-width:1.0;stroke-dasharray:7.0,7.0;"/><polygon fill="#444444" points="2813.22,1514.8039,2804.22,1510.8039,2808.22,1514.8039,2804.22,1518.8039,2813.22,1514.8039" style="stroke:#444444;stroke-width:1.0;"/><text fill="#000000" font-family="Noto Sans CJK JP" font-size="13" lengthAdjust="spacing" textLength="89" x="2693.5" y="1510.8839">&#35501;&#12416; / &#25552;&#26696;&#12377;&#12427;</text></g><!--link UC9 to O_REC4--><g id="link_UC9_O_REC4"><path d="M2606.66,1386.8039 C2673.56,1386.8039 2745.71,1386.8039 2809.78,1386.8039 " fill="none" id="UC9-to-O_REC4" style="stroke:#444444;stroke-width:1.0;stroke-dasharray:7.0,7.0;"/><polygon fill="#444444" points="2815.78,1386.8039,2806.78,1382.8039,2810.78,1386.8039,2806.78,1390.8039,2815.78,1386.8039" style="stroke:#444444;stroke-width:1.0;"/><text fill="#000000" font-family="Noto Sans CJK JP" font-size="13" lengthAdjust="spacing" textLength="26" x="2725" y="1382.8839">&#28040;&#12377;</text></g><!--link UCX to O_EXP4--><g id="link_UCX_O_EXP4"><path d="M2630.18,1281.8039 C2700.49,1281.8039 2773.42,1281.8039 2834.34,1281.8039 " fill="none" id="UCX-to-O_EXP4" style="stroke:#444444;stroke-width:1.0;stroke-dasharray:7.0,7.0;"/><polygon fill="#444444" points="2840.34,1281.8039,2831.34,1277.8039,2835.34,1281.8039,2831.34,1285.8039,2840.34,1281.8039" style="stroke:#444444;stroke-width:1.0;"/><text fill="#000000" font-family="Noto Sans CJK JP" font-size="13" lengthAdjust="spacing" textLength="26" x="2725" y="1277.8839">&#20445;&#23384;</text></g><!--link R3 to UC5--><g id="link_R3_UC5"><path d="M1182.65,938.6939 C1271.72,942.6939 1626.65,959.0239 1649,966.8039 C1664.37,972.1539 1664.48,980.4539 1679,987.8039 C1704.16,1000.5439 1726.5018,1009.8077 1753.5718,1019.3577 " fill="none" id="R3-to-UC5" style="stroke:#444444;stroke-width:1.0;"/><polygon fill="#444444" points="1759.23,1021.3539,1752.0735,1014.5875,1754.5148,1019.6904,1749.4119,1022.1318,1759.23,1021.3539" style="stroke:#444444;stroke-width:1.0;"/></g><!--link A3 to UC5--><g id="link_A3_UC5"><path d="M1189.52,1063.5839 C1268.35,1062.9239 1497.5402,1061.0235 1672.8302,1059.5735 " fill="none" id="A3-to-UC5" style="stroke:#444444;stroke-width:1.0;"/><polygon fill="#444444" points="1678.83,1059.5239,1669.7972,1055.5985,1673.8302,1059.5653,1669.8634,1063.5982,1678.83,1059.5239" style="stroke:#444444;stroke-width:1.0;"/><text fill="#000000" font-family="Noto Sans CJK JP" font-size="13" lengthAdjust="spacing" textLength="270" x="1378" y="1056.8839">register_asset&#65288;FILE INDEX &#12395;&#12354;&#12427;&#12418;&#12398;&#12384;&#12369;&#65289;</text></g><!--link R3 to UC7--><g id="link_R3_UC7"><path d="M1182.59,937.8039 C1261.1,937.8039 1545.8,937.8039 1727.86,937.8039 " fill="none" id="R3-to-UC7" style="stroke:#444444;stroke-width:1.0;"/><polygon fill="#444444" points="1733.86,937.8039,1724.86,933.8039,1728.86,937.8039,1724.86,941.8039,1733.86,937.8039" style="stroke:#444444;stroke-width:1.0;"/></g><!--link A3 to UC7--><g id="link_A3_UC7"><path d="M1189.52,1059.0939 C1282.64,1042.8639 1588.0391,989.6442 1761.0691,959.4842 " fill="none" id="A3-to-UC7" style="stroke:#444444;stroke-width:1.0;"/><polygon fill="#444444" points="1766.98,958.4539,1757.4268,956.0588,1762.0543,959.3125,1758.8005,963.9399,1766.98,958.4539" style="stroke:#444444;stroke-width:1.0;"/><text fill="#000000" font-family="Noto Sans CJK JP" font-size="13" lengthAdjust="spacing" textLength="89" x="1468.5" y="978.8839">set_performed</text></g><!--link UC5 to O_FS3--><g id="link_UC5_O_FS3"><path d="M2081.06,1073.9539 C2095.58,1074.9839 2110.02,1075.9439 2124,1076.8039 C2194.54,1081.1239 2267.5942,1084.2902 2330.8642,1086.6502 " fill="none" id="UC5-to-O_FS3" style="stroke:#444444;stroke-width:1.0;stroke-dasharray:7.0,7.0;"/><polygon fill="#444444" points="2336.86,1086.8739,2328.0154,1082.5412,2331.8635,1086.6875,2327.7172,1090.5356,2336.86,1086.8739" style="stroke:#444444;stroke-width:1.0;"/><text fill="#000000" font-family="Noto Sans CJK JP" font-size="13" lengthAdjust="spacing" textLength="65" x="2140.5" y="1072.8839">&#19968;&#35239;&#12434;&#35501;&#12416;</text></g><!--link UC5 to O_ASSET3--><g id="link_UC5_O_ASSET3"><path d="M2080.36,1041.1839 C2141.39,1035.9239 2202.7122,1030.6399 2263.3022,1025.4099 " fill="none" id="UC5-to-O_ASSET3" style="stroke:#444444;stroke-width:1.0;stroke-dasharray:7.0,7.0;"/><polygon fill="#444444" points="2269.28,1024.8939,2259.9693,1021.6827,2264.2985,1025.3239,2260.6573,1029.6531,2269.28,1024.8939" style="stroke:#444444;stroke-width:1.0;"/><text fill="#000000" font-family="Noto Sans CJK JP" font-size="13" lengthAdjust="spacing" textLength="96" x="2125" y="1026.8839">&#30331;&#37682; &#183; produces</text></g><!--link UC7 to O_PERF3--><g id="link_UC7_O_PERF3"><path d="M2038.73,934.8739 C2119.48,933.3139 2212.7311,931.5095 2294.1711,929.9395 " fill="none" id="UC7-to-O_PERF3" style="stroke:#444444;stroke-width:1.0;stroke-dasharray:7.0,7.0;"/><polygon fill="#444444" points="2300.17,929.8239,2291.0946,925.9981,2295.1709,929.9203,2291.2488,933.9966,2300.17,929.8239" style="stroke:#444444;stroke-width:1.0;"/></g><!--link R2 to UC4--><g id="link_R2_UC4"><path d="M477.78,585.4639 C554.89,599.3939 828.4356,648.8172 1005.0156,680.7172 " fill="none" id="R2-to-UC4" style="stroke:#444444;stroke-width:1.0;"/><polygon fill="#444444" points="1010.92,681.7839,1002.7745,676.2476,1005.9996,680.895,1001.3523,684.1202,1010.92,681.7839" style="stroke:#444444;stroke-width:1.0;"/><text fill="#000000" font-family="Noto Sans CJK JP" font-size="13" lengthAdjust="spacing" textLength="39" x="797.5" y="622.8839">&#12459;&#12540;&#12489;</text></g><!--link A2 to UC4--><g id="link_A2_UC4"><path d="M484.51,715.4839 C558.4,717.2339 770.06,721.4939 946,717.8039 C956.71,717.5839 961.7328,717.4774 972.8428,717.1374 " fill="none" id="A2-to-UC4" style="stroke:#444444;stroke-width:1.0;"/><polygon fill="#444444" points="978.84,716.9539,969.7219,713.2311,973.8423,717.1068,969.9666,721.2273,978.84,716.9539" style="stroke:#444444;stroke-width:1.0;"/><text fill="#000000" font-family="Noto Sans CJK JP" font-size="13" lengthAdjust="spacing" textLength="205" x="714.5" y="694.8839">set_status&#65288;&#30740;&#31350;&#32773;&#12364;&#12381;&#12398;&#12479;&#12540;&#12531;&#12391;</text><text fill="#000000" font-family="Noto Sans CJK JP" font-size="13" lengthAdjust="spacing" textLength="256" x="689" y="713.7079">&#35328;&#12387;&#12383;&#12392;&#12365;&#12384;&#12369;&#12290;&#25552;&#26696;&#20013;&#12363;&#12425;&#12384;&#12369;&#12290;D-120&#65289;</text></g><!--link R2 to UC6--><g id="link_R2_UC6"><path d="M477.78,581.6339 C551.34,581.0039 803.0702,578.8551 979.9402,577.3451 " fill="none" id="R2-to-UC6" style="stroke:#444444;stroke-width:1.0;"/><polygon fill="#444444" points="985.94,577.2939,976.9062,573.3709,980.9402,577.3366,976.9745,581.3706,985.94,577.2939" style="stroke:#444444;stroke-width:1.0;"/><text fill="#000000" font-family="Noto Sans CJK JP" font-size="13" lengthAdjust="spacing" textLength="39" x="797.5" y="573.8839">&#12459;&#12540;&#12489;</text></g><!--link UC4 to O_OBJ2--><g id="link_UC4_O_OBJ2"><path d="M1342.44,718.9839 C1354.13,719.6139 1365.73,720.2239 1377,720.8039 C1508.62,727.5939 1653.4562,734.3415 1756.4462,739.0215 " fill="none" id="UC4-to-O_OBJ2" style="stroke:#444444;stroke-width:1.0;stroke-dasharray:7.0,7.0;"/><polygon fill="#444444" points="1762.44,739.2939,1753.6309,734.8895,1757.4452,739.0669,1753.2677,742.8812,1762.44,739.2939" style="stroke:#444444;stroke-width:1.0;"/><text fill="#000000" font-family="Noto Sans CJK JP" font-size="13" lengthAdjust="spacing" textLength="37" x="1494.5" y="716.8839">status</text></g><!--link UC4 to O_EV2--><g id="link_UC4_O_EV2"><path d="M1342.43,698.4839 C1354.13,697.8939 1365.73,697.3239 1377,696.8039 C1497.84,691.2039 1528.52,697.6439 1649,686.8039 C1704.15,681.8439 1760.1763,673.7575 1806.8263,666.2475 " fill="none" id="UC4-to-O_EV2" style="stroke:#444444;stroke-width:1.0;stroke-dasharray:7.0,7.0;"/><polygon fill="#444444" points="1812.75,665.2939,1803.2286,662.7752,1807.8136,666.0886,1804.5002,670.6735,1812.75,665.2939" style="stroke:#444444;stroke-width:1.0;"/></g><!--link UC6 to O_REL2--><g id="link_UC6_O_REL2"><path d="M1336.6,572.1939 C1458.19,569.6739 1612.8813,566.4585 1728.9413,564.0485 " fill="none" id="UC6-to-O_REL2" style="stroke:#444444;stroke-width:1.0;stroke-dasharray:7.0,7.0;"/><polygon fill="#444444" points="1734.94,563.9239,1725.8589,560.1116,1729.9411,564.0277,1726.025,568.1099,1734.94,563.9239" style="stroke:#444444;stroke-width:1.0;"/><text fill="#000000" font-family="Noto Sans CJK JP" font-size="13" lengthAdjust="spacing" textLength="89" x="1468.5" y="562.8839">&#20316;&#12427; / &#29289;&#29702;&#21066;&#38500;</text></g><!--link UC6 to O_EV2--><g id="link_UC6_O_EV2"><path d="M1322.95,593.8939 C1341.18,595.9039 1359.49,597.9139 1377,599.8039 C1532.09,616.5639 1707.9311,634.6839 1806.6711,644.7739 " fill="none" id="UC6-to-O_EV2" style="stroke:#444444;stroke-width:1.0;stroke-dasharray:7.0,7.0;"/><polygon fill="#444444" points="1812.64,645.3839,1804.0933,640.4897,1807.6659,644.8756,1803.28,648.4482,1812.64,645.3839" style="stroke:#444444;stroke-width:1.0;"/><text fill="#000000" font-family="Noto Sans CJK JP" font-size="13" lengthAdjust="spacing" textLength="109" x="1458.5" y="595.8839">relation_removed</text></g><!--link R1 to UC1--><g id="link_R1_UC1"><path d="M99.57,184.1639 C115.21,182.1239 137.48,179.2439 157,176.8039 C195.98,171.9439 231.8734,167.5446 271.5434,162.7446 " fill="none" id="R1-to-UC1" style="stroke:#444444;stroke-width:1.0;"/><polygon fill="#444444" points="277.5,162.0239,268.0847,159.134,272.5362,162.6245,269.0457,167.076,277.5,162.0239" style="stroke:#444444;stroke-width:1.0;"/></g><!--link R1 to UC2--><g id="link_R1_UC2"><path d="M99.52,191.7039 C115.14,195.4639 137.4,200.6939 157,204.8039 C209.25,215.7639 260.9602,225.7217 311.5202,235.0817 " fill="none" id="R1-to-UC2" style="stroke:#444444;stroke-width:1.0;"/><polygon fill="#444444" points="317.42,236.1739,309.2985,230.6024,312.5035,235.2637,307.8422,238.4688,317.42,236.1739" style="stroke:#444444;stroke-width:1.0;"/><text fill="#000000" font-family="Noto Sans CJK JP" font-size="13" lengthAdjust="spacing" textLength="39" x="171.5" y="200.8839">&#20250;&#35441;&#27396;</text></g><!--link A1 to UC2--><g id="link_A1_UC2"><path d="M127.12,315.8239 C174.05,307.9639 242.1824,296.5451 308.0924,285.5051 " fill="none" id="A1-to-UC2" style="stroke:#444444;stroke-width:1.0;"/><polygon fill="#444444" points="314.01,284.5139,304.4729,282.0557,309.0787,285.3399,305.7945,289.9457,314.01,284.5139" style="stroke:#444444;stroke-width:1.0;"/><text fill="#000000" font-family="Noto Sans CJK JP" font-size="13" lengthAdjust="spacing" textLength="66" x="158" y="295.8839">operations</text></g><!--link A1 to UC3--><g id="link_A1_UC3"><path d="M127.08,339.6139 C136.88,342.3939 147.2,344.9739 157,346.8039 C199.68,354.7639 240.29,359.5949 283.7,363.1449 " fill="none" id="A1-to-UC3" style="stroke:#444444;stroke-width:1.0;"/><polygon fill="#444444" points="289.68,363.6339,281.036,358.9136,284.6966,363.2264,280.3839,366.887,289.68,363.6339" style="stroke:#444444;stroke-width:1.0;"/><text fill="#000000" font-family="Noto Sans CJK JP" font-size="13" lengthAdjust="spacing" textLength="59" x="161.5" y="342.8839">read_files</text></g><!--link UC1 to O_PRJ1--><g id="link_UC1_O_PRJ1"><path d="M658.01,139.9439 C802.08,139.3339 981.9401,138.5696 1082.3701,138.1396 " fill="none" id="UC1-to-O_PRJ1" style="stroke:#444444;stroke-width:1.0;stroke-dasharray:7.0,7.0;"/><polygon fill="#444444" points="1088.37,138.1139,1079.353,134.1525,1083.37,138.1353,1079.3872,142.1524,1088.37,138.1139" style="stroke:#444444;stroke-width:1.0;"/><text fill="#000000" font-family="Noto Sans CJK JP" font-size="13" lengthAdjust="spacing" textLength="26" x="804" y="134.8839">&#20316;&#12427;</text></g><!--link UC2 to O_MSG1--><g id="link_UC2_O_MSG1"><path d="M626.18,274.1339 C647,275.7339 667.99,277.3239 688,278.8039 C830.9,289.3739 992.1937,300.4384 1084.4537,306.6884 " fill="none" id="UC2-to-O_MSG1" style="stroke:#444444;stroke-width:1.0;stroke-dasharray:7.0,7.0;"/><polygon fill="#444444" points="1090.44,307.0939,1081.7309,302.4947,1085.4514,306.756,1081.1902,310.4765,1090.44,307.0939" style="stroke:#444444;stroke-width:1.0;"/><text fill="#000000" font-family="Noto Sans CJK JP" font-size="13" lengthAdjust="spacing" textLength="26" x="804" y="274.8839">&#20445;&#23384;</text></g><!--link UC2 to O_OBJ1--><g id="link_UC2_O_OBJ1"><path d="M633.54,253.0439 C756.56,247.6139 912.1658,240.7586 1023.8158,235.8286 " fill="none" id="UC2-to-O_OBJ1" style="stroke:#444444;stroke-width:1.0;stroke-dasharray:7.0,7.0;"/><polygon fill="#444444" points="1029.81,235.5639,1020.6423,231.9648,1024.8149,235.7845,1020.9952,239.957,1029.81,235.5639" style="stroke:#444444;stroke-width:1.0;"/><text fill="#000000" font-family="Noto Sans CJK JP" font-size="13" lengthAdjust="spacing" textLength="26" x="804" y="236.8839">&#25552;&#26696;</text></g><!--link UC3 to O_READ1--><g id="link_UC3_O_READ1"><path d="M625.89,373.9139 C772.12,376.6239 971.021,380.303 1079.791,382.313 " fill="none" id="UC3-to-O_READ1" style="stroke:#444444;stroke-width:1.0;stroke-dasharray:7.0,7.0;"/><polygon fill="#444444" points="1085.79,382.4239,1076.8654,378.2583,1080.7909,382.3315,1076.7176,386.2569,1085.79,382.4239" style="stroke:#444444;stroke-width:1.0;"/><text fill="#000000" font-family="Noto Sans CJK JP" font-size="13" lengthAdjust="spacing" textLength="26" x="804" y="371.8839">&#35352;&#37682;</text></g><!--link G1 to G2--><!--link G2 to G3--><!--link G3 to G4--><!--SRC=[hLXRKnjN4dxNhpZ5FkHX5snT0EE7L0c1N3Z4Tedrbgj2IZNH3A2Df55cXcHJgLHfHe35hI34O2wEZMtCDO1PNr2uLkMdxD6Cn9F_mdQVCpV9juTOTe5cka-VFjtzTN-7pqYYAn4bjBXEYoVK-8CQ1_nBRUskELioLrwyEIa9cVoGyEPa_2gXnXDgx5FZ79J8_yRcth6GlJRtpse7Zs6fLHmrLmzWBJNcI91O3vUflXFuZ5YxJwyIKKwfbovtD0-hKafG9RKbAnAgxv7RiUOWBJo0Nnsqe7EjAyrgIf6a72gvBrkRHK4JchEoA6LmyPyRiC28a-hyjZbpIFLzeaZV3QSLAIlbD5ijFvpDW0CHs6aDDgF6SrhSGTUBzy77QdaT7ApWppzW6tDsf4v1t_57WEgR_A2uy7IFwZDmukhXCZnMZjRCGtWpJ_KLgczJVOJgZwYXGoG2MbhBI8G55PpOOF-dgJ59zL_18fYeY_AbTyNuaXlXyK10_JQTomkAa2MYD20CPxIudDDk25c9DDsGDPdq2JcLnAv_GQxVQl8fgqE2AF-GpWsI0I6ZIZw98W_dn9Yiv2I5jFdUHnL5_Y4cPsI5_2t2FZwXdKJoKu2GJY7rxQ1jXMd7sGSbiY9AIhsDdtrMKe8YliT4TxoZkxtHH6TxH-lbpZeJGae3oLzp8myhXS7t7IQA_zvh9ICDQ0J2hgG7XpGYGlMbjBIS2s3LpynKxnrVh8v1uLqKJm5Wa7meHOHC44kVYNRClQUrpGBLbw0ee1pCkqVc15JHVgKyGVL9Qeo3CYx16jx1waArSR3V_DS-0UVOJP4MOgujyCqgf-TK7yCwD00C4zMLb-1P4n5KSYt20iG3tbHTlLVTUbqhZ39P8k99OXbXM9H83F3NduC3VHcx1VuojHYgEQNJ18Y_GdpQnDHVSYUiNwShfmzuIFfpjSrTSs-PnS2l3T6edP-Q4wlzkK59IogIAWbAQYYP0Zn8_z7W2D1214rAoj_y6v92BlNdLD3ZJqbL4xHX5H6yTCJ2lsUUp5VlRL9zoZmVlLWjWS_nDkRrxTYL1hSxwg9Jvo4w3Sr4NxTUGxgNO8CGiVPULPySrRQddJZSZdNuBLehPUW9aFYtZK6FsEEXXZRZrmF3r_jkta0lWq7Rw1qmoY3Lv2pPfiK5QfIfiO4jfbWYVnxoJWWzQWeEWC_Izz0kLITLM9UrxLsgdvipi7G2ssesbOVm2gBZ_irajBStqh0PcggSBDUs3l2RdIZMSezfiKYDGrhSeCKNfAUBRMLxM9odnXRhk0LMtVkrZNLgJF4cwksNw8vv-_5pbuB4jW6f6zsanJ7MjHV0cBUk-yujN9U805W-nqIIguJ75w38gmV4CRyOOk1VqU5_m02ZLalBvtOGq1v4ooX0kLapizRZ4gzQfjXXAwBteCWhWadks1Bq3oILyz_CtKNe9fyGrE4M62LtsGGvXzfniZxBiHp-09R3dYJQmvB5y-g4DHfkW4ChiSOdpT4YPXiJ2XDo3NCAkxeUO78vdBrtnME_EgluTvI5CNUXGzs_Hhb_jGvOXHczNbqwlfZwhusNBV31Al_E4hpdqvqayOYDajO6xzk9lS2OC_SUMGkdLXdovFVuA_wURVVeQuW7Rnw4kR1lbfuXPexB7hhR6u7eEmyBAAyPggzI_HVWC7b5ngQajYYoh2NpWZRabN2yB-nQSm-4D4s5RWPg_RdgIXdu0It-0bm11C0MfexCqbq4Rq7d3fXZer3mbNB16W7MCevTm7Y5OJUE4AtMoajhuRbr_vcrP3W8x-lh_gUtinjJ7WhO9Yi9wZ3dMcfBNb86P2KhYKc1-mIsAiUB41rV3lRys_16RszsgpiHnxqIOHjecAEe-m08KQJ1jAf9Ij8-TYdUqzjDUcvqTT_XOz50IcKOc7KMLHoHFeFjVeFjO117WUirmsIhZKa8E4AoNAYjGzUSuwcgq-2n0IMxz222a45nE2MfJA_TrkF7-gIe3hKGw-08g2KS5rgEVpo7FW3fqCSW7Me0HSJfPZ1rdFsWqfuSuMY22fj-MIaZMmaJipHsiG1ZQl-Yi5nzzCmUuALZfCACgG1cWU5Y3Umme2_WHO4PhvHteGTmetmTZhDMuixTHhhGLZUya8VR0_ZDoQGhcaKIzN0I1-Uh4TRcdzUs7y8IF8X-nfq2Ce35gI_pKUg6ooqUsuEsZuvKO1Mi6rp56iZBgYIoLWGiP22DjOMyGv4GtfBe1CmycqBYDpvniRI6pX0aBkdl9T76mytEwo4FzBuZWm55oWZ8C5ba1L44tWENASX9Nf74D3GH-Af9W1Kn-SsFx3MlpFxStm550v8YvL9Cdna2BKrsXsoljwl32dZLO8zWiCLlegG9wOmpOV-5Qn8X6reupJ3HE8eHW56_037dyIulv12CtnXJODUiuWj86j8Ww8zFyHw5NNRQxPLUwR2ASTztDGT3bstKEvksDNY3Rd1eOeJH8-PDdOGV2DSwmxiNDP6FSiYDRrLdntZkwXHX8MjKF3r0cB8oPFJJmZ_OGW2rBkI37u1yy2t8fspotDlZmZxO032NKy4it9XqO4yBK-nAUmRpf78wpvhYEMUvzdialPEqCCs7CE1gqLcB5zmwahVFYd_3WrYZ3o6RHjhJ_JsmWwgfpfmXLSHTVeAuvpC__eF8qDDP_5NoCy6_Gi355cdebBNseBPvGk914W-HUDZUkx7jXKcq1xKRQ0oV0OXZGKmEf3E07_PtZz7InUekYNpHoMY-ULOmpxPOEF1uyGvxat133m5bU-0p39kpq-RuD0BhRRBWpCV4zQ1hnEdSC85L5Qf2zRZ2bttNWXzjMFxsonoe79LWl3CcimQTs3oPWPjJ6eOjX14vJcrpqPmvh3tsxaQ0pgSFQgzVuEKW9sjmSolTzrgNvmA6ohuvb7X3uVEWCCMl6BMp4_Xfywt2jDk7ebre8n6qOLptmC38Gc3zFe8TnY_mqk-NX1akdTGnq0QT4GsHTT7D925RWh7qgBbVWaT4Ei-2o2HXjrU0v-oAiGYy0A0V01lDNmsbHL7AVGs-N0i5O4xNlGa7W8pNlOdy7m00]--></g></svg>